<mxfile host="app.diagrams.net" modified="2022-08-25T10:15:05.533Z" agent="5.0 (Windows NT 10.0; Win64; x64) AppleWebKit/537.36 (KHTML, like Gecko) Chrome/104.0.5112.102 Safari/537.36 Edg/104.0.1293.63" etag="s7oiACgVlFE-gj07u9ON" version="20.2.7" type="github">
  <diagram id="8RGNAFoBAq_43oCXvlU4" name="Page-1">
    <mxGraphModel dx="1640" dy="435" grid="1" gridSize="10" guides="1" tooltips="1" connect="1" arrows="1" fold="1" page="1" pageScale="1" pageWidth="827" pageHeight="1169" math="0" shadow="0">
      <root>
        <mxCell id="0" />
        <mxCell id="1" parent="0" />
        <mxCell id="e8maupZcCNSMWvDVQ-z9-1" value="" style="rounded=0;whiteSpace=wrap;html=1;" vertex="1" parent="1">
          <mxGeometry x="-460" y="70" width="460" height="430" as="geometry" />
        </mxCell>
        <mxCell id="e8maupZcCNSMWvDVQ-z9-2" value="3SU1&lt;br&gt;" style="text;html=1;align=center;verticalAlign=middle;resizable=0;points=[];autosize=1;strokeColor=none;fillColor=none;" vertex="1" parent="1">
          <mxGeometry x="-430" y="90" width="50" height="30" as="geometry" />
        </mxCell>
        <mxCell id="e8maupZcCNSMWvDVQ-z9-3" value="SPI FLASH&lt;br&gt;D230&lt;br&gt;MXIC 25L8006E" style="rounded=0;whiteSpace=wrap;html=1;" vertex="1" parent="1">
          <mxGeometry x="390" y="220" width="120" height="60" as="geometry" />
        </mxCell>
        <mxCell id="e8maupZcCNSMWvDVQ-z9-5" style="edgeStyle=orthogonalEdgeStyle;rounded=0;orthogonalLoop=1;jettySize=auto;html=1;exitX=1;exitY=0.25;exitDx=0;exitDy=0;endArrow=none;endFill=0;" edge="1" parent="1" source="e8maupZcCNSMWvDVQ-z9-4">
          <mxGeometry relative="1" as="geometry">
            <mxPoint x="10" y="173" as="targetPoint" />
            <Array as="points">
              <mxPoint x="-85" y="173" />
              <mxPoint x="10" y="173" />
            </Array>
          </mxGeometry>
        </mxCell>
        <mxCell id="e8maupZcCNSMWvDVQ-z9-6" value="P3V3" style="edgeLabel;html=1;align=center;verticalAlign=middle;resizable=0;points=[];" vertex="1" connectable="0" parent="e8maupZcCNSMWvDVQ-z9-5">
          <mxGeometry x="-0.2" y="-1" relative="1" as="geometry">
            <mxPoint as="offset" />
          </mxGeometry>
        </mxCell>
        <mxCell id="e8maupZcCNSMWvDVQ-z9-70" value="P18" style="edgeLabel;html=1;align=center;verticalAlign=middle;resizable=0;points=[];" vertex="1" connectable="0" parent="e8maupZcCNSMWvDVQ-z9-5">
          <mxGeometry x="0.5579" y="-1" relative="1" as="geometry">
            <mxPoint x="2" as="offset" />
          </mxGeometry>
        </mxCell>
        <mxCell id="e8maupZcCNSMWvDVQ-z9-7" style="edgeStyle=orthogonalEdgeStyle;rounded=0;orthogonalLoop=1;jettySize=auto;html=1;exitX=1;exitY=0.5;exitDx=0;exitDy=0;endArrow=none;endFill=0;" edge="1" parent="1">
          <mxGeometry relative="1" as="geometry">
            <mxPoint x="10" y="190" as="targetPoint" />
            <mxPoint x="-180" y="190" as="sourcePoint" />
          </mxGeometry>
        </mxCell>
        <mxCell id="e8maupZcCNSMWvDVQ-z9-16" value="SYS_SWDIO" style="edgeLabel;html=1;align=center;verticalAlign=middle;resizable=0;points=[];" vertex="1" connectable="0" parent="e8maupZcCNSMWvDVQ-z9-7">
          <mxGeometry x="-0.2182" relative="1" as="geometry">
            <mxPoint as="offset" />
          </mxGeometry>
        </mxCell>
        <mxCell id="e8maupZcCNSMWvDVQ-z9-18" value="P21" style="edgeLabel;html=1;align=center;verticalAlign=middle;resizable=0;points=[];" vertex="1" connectable="0" parent="e8maupZcCNSMWvDVQ-z9-7">
          <mxGeometry x="0.5544" relative="1" as="geometry">
            <mxPoint x="2" as="offset" />
          </mxGeometry>
        </mxCell>
        <mxCell id="e8maupZcCNSMWvDVQ-z9-4" value="D130&lt;br&gt;STM32L051&lt;br&gt;SWD" style="rounded=0;whiteSpace=wrap;html=1;" vertex="1" parent="1">
          <mxGeometry x="-280" y="130" width="100" height="170" as="geometry" />
        </mxCell>
        <mxCell id="e8maupZcCNSMWvDVQ-z9-12" style="edgeStyle=orthogonalEdgeStyle;rounded=0;orthogonalLoop=1;jettySize=auto;html=1;exitX=1;exitY=0.5;exitDx=0;exitDy=0;endArrow=none;endFill=0;" edge="1" parent="1">
          <mxGeometry relative="1" as="geometry">
            <mxPoint x="10" y="210" as="targetPoint" />
            <mxPoint x="-180" y="210" as="sourcePoint" />
          </mxGeometry>
        </mxCell>
        <mxCell id="e8maupZcCNSMWvDVQ-z9-13" value="SYS_SWCLK" style="edgeLabel;html=1;align=center;verticalAlign=middle;resizable=0;points=[];" vertex="1" connectable="0" parent="e8maupZcCNSMWvDVQ-z9-12">
          <mxGeometry x="-0.2545" y="-1" relative="1" as="geometry">
            <mxPoint as="offset" />
          </mxGeometry>
        </mxCell>
        <mxCell id="e8maupZcCNSMWvDVQ-z9-17" value="P22" style="edgeLabel;html=1;align=center;verticalAlign=middle;resizable=0;points=[];" vertex="1" connectable="0" parent="e8maupZcCNSMWvDVQ-z9-12">
          <mxGeometry x="0.3088" y="-1" relative="1" as="geometry">
            <mxPoint x="26" as="offset" />
          </mxGeometry>
        </mxCell>
        <mxCell id="e8maupZcCNSMWvDVQ-z9-14" style="edgeStyle=orthogonalEdgeStyle;rounded=0;orthogonalLoop=1;jettySize=auto;html=1;exitX=1;exitY=0.5;exitDx=0;exitDy=0;endArrow=none;endFill=0;" edge="1" parent="1">
          <mxGeometry relative="1" as="geometry">
            <mxPoint x="10" y="155" as="targetPoint" />
            <mxPoint x="-180" y="154.5" as="sourcePoint" />
            <Array as="points">
              <mxPoint x="-85" y="155" />
              <mxPoint x="10" y="155" />
            </Array>
          </mxGeometry>
        </mxCell>
        <mxCell id="e8maupZcCNSMWvDVQ-z9-15" value="GND" style="edgeLabel;html=1;align=center;verticalAlign=middle;resizable=0;points=[];" vertex="1" connectable="0" parent="e8maupZcCNSMWvDVQ-z9-14">
          <mxGeometry x="-0.2545" y="-1" relative="1" as="geometry">
            <mxPoint as="offset" />
          </mxGeometry>
        </mxCell>
        <mxCell id="e8maupZcCNSMWvDVQ-z9-71" value="P19" style="edgeLabel;html=1;align=center;verticalAlign=middle;resizable=0;points=[];" vertex="1" connectable="0" parent="e8maupZcCNSMWvDVQ-z9-14">
          <mxGeometry x="0.5879" y="1" relative="1" as="geometry">
            <mxPoint as="offset" />
          </mxGeometry>
        </mxCell>
        <mxCell id="e8maupZcCNSMWvDVQ-z9-19" value="" style="shape=image;verticalLabelPosition=bottom;labelBackgroundColor=default;verticalAlign=top;aspect=fixed;imageAspect=0;image=data:image/png,iVBORw0KGgoAAAANSUhEUgAAAgcAAAH6CAYAAACTRe9hAAAgAElEQVR4nOydd3hT1f/H38G2YEGZCvhFKENQQGYpo8WWWYYFyhIpG5RRZikblL0pQ5YoyKbwU5ZAgbIFBKFQENl7CGJZCohSmt8fIaH35t7kJrlpbpL363n6JDnnc8759LY5eeXcpdPr9XoQQgghhLwkk6sTIIQQQoi2oBwQQgghRADlgBBCCCECKAeEEEIIEUA5IIQQQogAygEhhBBCBFAOCCGEECKAckAIIYQQAZQDQgghhAigHBBCCCFEAOWAEEIIIQIoB4QQQggRQDkghBBCiADKASGEEEIEUA4IIYQQIoByQAghhBABlANCCCGECKAcEEIIIUQA5YAQQgghAigHhBBCCBFAOSCEEEKIAMoBIYQQQgRQDgghhBAigHJACCGEEAGUA0IIIYQIoBwQQgghRADlgBBCCCECKAeEEEIIEUA5IIQQQogAygEhhHgYer3e1SkQN4dyQAghHkZ0dLRZWVpaGtatW4fg4GAXZETcDcoBIYR4GO+99x4GDx4MAPjnn38wb948lCxZEsuWLcPUqVNdnB1xB3R6rj8RQojHERcXh/379yMpKQkNGzZETEwMihUr5uq0iJvg4+oECCGEqE9MTAz0ej0KFiyIGTNmuDod4mZwtwIhhHgo/fv3R4ECBdCrVy8epEhsgrsVCCHEw9DpdBbrOe0Ta3C3AiGEeBj88CeOwt0KhBDiRVhbVSAEoBwQQgghRATlgBBCCCECKAeEEEIIEcADEgkhxMPgcQXEUSgHhBDiYfBsBeIo3K1ACCEexoMHDxAVFYV58+aZypKSkjBw4EA8e/bMhZkRd4FyQAghHkbnzp2RP39+tGvXzlRWsWJFZM6cGT179nRhZsRd4BUSCSHEw8iWLRtu376NN954Q1D+119/oWDBgnj48KGLMiPuAlcOCCHEw8iTJw9+//13s/I///wT2bJlc0FGxN2gHBBCiIfRv39/fPrpp9i7dy8ePnyIlJQU7NmzB+3atcO0adNcnR5xA7hbgRBCPJDFixdj9uzZOH36NLJkyYLatWvjyy+/RKlSpVydGnEDKAeEEOJhFC5cGGFhYaafQoUKuTol4mZQDgghxMO4efMmDh06hEOHDuHw4cO4f/8+goKCKAtEMZQDQgjxcFJTUzF37lz06dMHfn5++Pfff12dEtE4vEIiIYR4KE+ePMGmTZuwcuVK3LhxA9OnT0fbtm1dnRZxA7hyQAghHsYPP/yANWvWYP/+/WjUqBE6deqESpUquTot4kZQDgghxMPQ6XSIiorCnDlzkD17dlenQ9wQXueAEEI8jPj4eDx9+hSlS5dG7969cfz4cVenRNwMrhwQQoiH8vjxY2zcuBFr1qzBrVu3EBUVhaioKLz11luuTo1oHMoBIYR4OM+fP8eCBQvQs2dP+Pr64r///nN1SkTjUA4IIcTDSH+dg0OHDuHevXum6xzUqFEDAQEBrk6RaBzKASGEeBgBAQEIDQ2lDBC74QGJhBDiYaxfvx4HDx5Ex44dERAQgHnz5iFHjhwIDAzExYsXXZ0ecQN4ESRCCPEwBg4ciMGDBwMA9u/fjwULFuDixYtISkpCdHQ0tm3b5uIMidbhbgVCCPEw3n77bVy5cgVZs2bFmDFj4Ovri8GDB+PZs2fImTMn/vnnH1enSDQOdysQQoiH8fjxY+h0OgDAjh07UL16dQBAlixZkDdvXlemRtwEygEhhHgYQUFBWLlyJZKTk3Hu3DkEBQUBAI4ePYry5cu7ODviDvCYA0II8TBmzpyJli1bIiUlBQsWLICvry8A4JNPPsHatWtdnB1xB3jMASGEeCE6nQ6c/okc3K1ACCGEEAGUA0IIIYQIoBwQQgghRADlgBBCCCECKAeEEEIIEUA5IIQQL4RnKhBLUA4IIcTDSE5OxnvvvWd6zRsvEVvhRZAIIcTD4I2XiKPwIkiEEOJh8MZLxFG4W4EQQjwM3niJOArlgBBCPAzeeIk4Co85IIQQD4M3XiKOwmMOCCHEw7hz5w7y5cvn6jSIG8PdCoQQ4mGULVuWZyQQh6AcEEKIh7Fq1SoMGzYMAwYMwPPnz12dDnFDKAeEEOJh1KxZE0eOHEFAQABCQ0Nx+fJlV6dE3AwekEgIIR6ITqdDdHQ0/vrrLxQtWlRQx0PNiDW4ckAIIR5IWloavv76axw8eBDXrl2DXq83/RBiDcoBIYR4GDt37kSdOnWQOXNm/PjjjyhYsKCrUyJuBk9lJIQQD6N58+aYPXs2T2ckdkM5IIQQQogA7lYghBAPg7dsJo7CsxUIIcTD4C2biaNwtwIhhHgYvGUzcRTuViCEEA+Dt2wmjkI5IIQQD4O3bCaOwmMOCCHEw+Atm4mj8JgDQgghhAjgbgVCCCGECKAcEEIIIUQA5YAQQgghAigHhBBCCBFAOSCEEEKIAMoBIYQQQgRQDgghhBAigHJACCGEEAGUA0IIIYQIoBwQQgghRADlgBBCCCECKAeEEEIIEUA5IIQQQogAygEhhBBCBPi4OgEiRKfTOa1vvV7P/tk/+2f/sv0TYoRyoEH0T4+q3qfOPzDD+t+2/xfV+w8PCcqw/hPV3zyo82rzuP32Yf+u7R9Ha6vePwJ3qN8ncWu4W4EQQgghAigHhBBCCBFAOSCEEEKIAB5zQIgdJB8F1q4ELp0H7qcA0AE5cwLFSwGftAM++NDVGRJCiP1QDgixg6+nAx/VAvoNB7LnMJT9/RewYwswbhiwfKNr8yOEEEfgbgVC7ODaFaBJKyBnLiBTJsNP9hzAx82Ae3ddnR0hhDgG5YAQO8iZC0jcBDx9Auj1gD7NsHKwdYOhjhBC3BnuViDEDoZPAOIXA6sWAw8fAD4+QK7cwPulgUFjXJ0dIYQ4BuWAEDv44ENg1DRXZ0EIIc6BuxUIsYP0VzwkhBBPg3JACCGEEAHcrUCInVhaPXDG/RkIISSjoBwQYicUAGIv4SFBphs0XbtyGVPHj8b1K1dQqkwZxAwegTxvv636mPqKidAl1VG9X+KZUA4IIcSFxE0Yi9ihX6BgoQBcuXwJcRPHYHzcVw71qa+YaLGckkCswWMOCLEDrhoQtbh6+RIKBhSGLlMmBBQpitO//upwn40ujsCpf65i+O/fIcuxBiYZ0CXVoRgQRVAOCLGTIweB2K5A44+ARh8BMZ8Dvxx0dVbEXZgydiR2btuCYiVKQKfTAQDOnf4N+d55x+G+f3x0CJXORsNX54MjH8xBvTcrOdwn8S4oB27Muo274Ze9CnT+gdD5B8IvexWs/3GPKn0nnzyP9z6MNL2e9833yJEvDIHBbXHx0g1VxnBn9u0Apo8DIj8F4rcCKzYBzT4FZowDDux2dXZE6yz9vw0oW74ijh35BXf/+MNUPnXcKPQZOFSVMZ6l/YeRvy9Fk0tfIvrtRqr0SbwHHnPgpqzbuBttOo3A6mUTENmoBgBg7YZdiOo4HCu+G4smEWEO9T9w2EwM7t8BALD/YDIWLFyLi7+tR9LxM4juNwnbNs52+HdwZ5Z9AwwZA3xY4VVZcA3APyswf7rhOSFy5M2fH3UbRqBuwwhB+cJV36s+1uV/byPi4gjV+yWeDeXATfmk7RCsWT5RIAFNG9cEALRsMxj/PTrkUP/JJ85jXfxUAMDuvUfxSfO6yJM7B0JDKqJJy/4O9e0J3LwOFC9pXl6iNHDzWsbnQwghasLdCm7K8+epkqsDTRvXxPPnqQ73//jJU9N+0B27f0H14PIAgCxZ/JD37dyO9//4b8ycPAFRTT9Gw7BqaFw7FJ+3bYXli75B6vPnDvd/6kQy2jSNQMdWzXDqRDL6de+CRrWqI6b7Z7h10/HdIvnfAc5IHDd29hRQoJDD3aP+R1WwZsVS6NPSHO9MgpPJx9CpVTMAwMXzZ9GzcztE1AxBTPfPcP3qVYf7Dw8JMj2/duUyen3WAY1rh2JoTC+k3HXObSvTj+koyUlH0apRfUR3aoud27agdZOGaFT7IwyP7Yt7KX+qNg4hWoUrB0SSoMBSWLlmKwIrlMS581cRFFgKAHD02GmUL1vC4f6njBmJxs1boke//kjYuB5PnjxBSGgNHNi3B19Nm4R+g4c71P+c6VMwbPR4vObjg37dOmPEuEkoVzEQJ48fQ9z4MZg2d4FD/Ud1AaaOBqIHAKXKGm68dCIJ+GqSocxR0tLSkDVbNsT27IY2nT9D+YrqHlA2feI4dOraAwAwafSX6BkzEKXKlEVy0lFMGv0F5ixaqtpYzjhVT04EjOXGawjYyzdzZiFmyHD89egRpowdhUFfjkaV4Oo48vNBxE0Yi3HTZjrUf6tG9fHg/j3Zekfzv11mNfL5yt8elGcsEGtQDtwYnb/zLvA/c2osWrYZjJSUh1gwZzh8fQ3/Kp+0HYK18VMc7v940hEMHzsBvr5+qBfRBJ9EhOPTdh3xcZNmaNM0wmE5uHn9Gop/UBJ6vR6pqamoGFQZvr5+KFu+IsaNcPyAr1r1gZy5gVWLgGmjgWfPDLsZYoYDgVUd7h4A0LBxU5QpVwEL5szEgq9mILRWHZQs/SEKFS6C7DlyOtT3Xw8fIqhaCADg0cOH+KD0h/Dx8UG5ChVx6+Z1NdI3YTpVT6dT7VS9UZOm4buv5yKsVl00bx0FX18/wYWFHOXG9av4sFx5+Pj4YM70KahROxwAUK16KKaNd/y2m7O/XYIBvbtjzOQ4FCiowlKTiEpne2J38an4+OJwnHvGA4iJ7VAO3BT9U+eeaF/2w+I4d2KtWfml3zao0n+hwkVw9PAhBFaughPHjiJvvvwADMvdOXM7vtvinQLv4tKF80hLewEfX18kJx1FhUqVceH8WRQr7vjKBwBUCDL8OJN3CwVgzOTpuHLpInZt34pv5n6FG1evYn2iY2elVK9ZCysXL0T1GjXRsHEkNm9Yi/AGEdi9YxsqVVbHbqaMHYkKlYKccqpeleDqqFCpMlYvX4JeXTqgS49eDveZnoAiRfHTrp2o2zACK9ZuMpWfPfMbChQs6HD/ed5+G12698TXs2dgzOTpDvcn5uZ/f2LQzW8wrUBXfHzRMdEm3gnlwI1Zt3E3Pmk7xHSMga+vj9lBivaSfPI8WkQNwoVf1wEwnMo4ZMRsFCv6LuKXjkexou861H/s0C8wfdI4TBg5HIUCCmPA8JEAgG/nzEK/wcMczr97n/4YNSQWfpmzYELcLHwzZxbGjRiKEiVLImaoOkduHzkIrF4CXDgD6AEUex9o1QEIqqZK9wIKFy2Gzt17qtZfj76xiF/6HSaN/hJ3fr+F1NRUfL9yGSpVDUbfQY5v/6X/twEnjh2VPFUv9uXf2lH8/PzQttNnqF2vAebNUPf+2TGDh2PymC9Rt2EE/LNmNZVPnzgOg74YrcoYwaE1EBxqflpLamoqfHwcn5rXPtyPtQ/3m5X76nzwXO/4cUnEs9Hp9Xq9q5Mgr9DpdIpWBYynMi5fNEZwKmPbzl9Insqo8w+EXq9X3H/diGh80qwuOndojP0Hk9ErZjISN89F0vEziJu1wuxUxvT9q7W0m57wkKAM61/J1Q/37TCcshg9wLB6kJoKnEwC5kwFomPNT2WsEwiP2T7s3zn9Xzx/DjsSNuPQwf1YvFq4ape+fxytbVf/5f2LoX3uuvg4e2UUO9VeWBm4A/woIOnhyoGb4u6nMu7fswtxE8eibv2P8Xa+fPi/lcvxzz9PUbL0h+gVOxj53/mfpvt39nUO3H37sH9lPLh/D7u2b8X2LZtw9fIldOoWjTkL1TsYNJ9vLkTlqokOucNR+vUADLm1EBXP9FCtf+K58FRGN8XdT2VcNH8O+g4cilJlyuLrr2ag/9ARWL1xK8pVDMLsaZM137+zr3Pg7tuH/Vtm785EjBjQD5+3bYVrV66gex+DcH/Spj2yZsvmcP+f5AzD5mLjcKrkNyiZpRD63JgDAJh4Jx6PXjxxuH/i+XDlgEji7FMZ79z+HdWqhwIvBaRcxUrw8fFBZMtPEL/sO833b7zOQTnRGYZqXefA3bcP+7fM+C+HoWbdeliyZr3gmAa1iC8yDCvu70SRU23x14unqvdPPB/KgRvjzqcyvnhhOIvAiPEALF9fPzx5/Fjz/Tv7Ogfuvn3Yv2WGjByLxITNaN+yCYI/CkPNuvUc7jM9n14Zj/a56+By6WVY9/AAVtzfqWr/xPOhHLgpNy9uwf/eedtp/efJncOppzK6OxlxnQPiuYTVrouw2nVx/14Kdm5LwOw4g3CvWbEMEZHN8Lq/v0P9x9/fjfj7u5HfNxfa5KqN2e8aznQZmO8TzPvzR/zN1QRiBcqBm1KzfjdUrlQaMb3boFyZ4m7XPyC8yp2al77NqP6dfZ0Dd98+7N86uXLnQYvWbdGidVtcOHcWiQmbEN2pLRbF/6BK/7ef38eUP9Zgyh9rUNH/PbTPXRdJH8xF8VMdVOmfeC6UAzflbPIP2LXnCKbOWIZHjx6jR9cWqFenqukgQq3374zTyTKy/592GVYM6kYAefMDa5YCz54CH5QB+gwB8jt4MLu7bx/2bzvvlXgf75V4H6mpzrkGQdLTC0h6egG+NzntE+vwbAU3RafToVaNICxfNAbLvxuDq9d+R8euo7Bw8Qb8++9/mu8/OekourVvjUa1qiO6U1uc/vWkw31mZP8LZwP9hgGlywHz44DYL4A124HyQYbjDhzF3bcP+7e/fzUugFTzjXI4UfJrPC2/Ccc+mIdq2UqZ6ngBJKIEyoEHkP3NbOj+WXMsnPcF9v+cjCqh6i4ZOqP/6RPHIqpDZ6zZvB1NWrTC9EljVcg04/q/cwsIDgOqhRpelw8CMmcBmrYCTqvwOeLu24f9u7b/bwv1x5jbK/DWieaYeXcdvi0Uo2r/xPOhHHgA12/cwRdj5qNR834IDamAw/uWaL7/P+7cRvUatZAly+uoFV4fN6+re7MfZ/f/4gXg42s4SwF49ejrBzxx/GB2t98+7N+1/QdkzovvH+zDk7RnWH5/B4pnLqBq/8Tz4c4nNyU19QU2JfyEb79bD51Ohz7Rn2L0iG5u03/6S7VmypQJaWlpqvWdEf07G3ffPuzftf3r8OrYoBf6NLym4/dAYhuUAzelRNmmqBUWhKkT+uL9EgFu1z9gfgR4+tdqHBDm7P7rBEo/Vwt33z7s37X96ysmyr7WJdVxuH/i2VAO3JTD+5YgT+4cbtu/ux9truTmTI7g7tuH/bu2f374E0fhWpOb4swP7ozonxBCiHbhLZs1glrXDyCEEEfgRwIBuFtBU8yYv8jiG1O+Tp8uRqZOb1aiMEZiTFO4XrJcWGQpRi/dTOL31Js9MW/5KsbCNpT4Xc2HtzQ56i0MIcrHUoxkGtLbymwbKo1R1F7mb6A0Rm/pN5Df1mb/X5b+d+T+p9M/sylG4v/LQp1tMU7c1rL/O/JvbmUxrwpmTlHhIh3EI/AKOXCXb+UUA1AMzEIpBlZaUwxkUrNVDIy4w3zJ1Q3n4xVyAAD6p04+gsxB0t9hsW+3Ti7MhBDiTeh0OvQZMMj02p3mSuI8vEYO3I0Z8xcB4IqBXHvzGK4YKG/PFQOAKwZyQxEC8GwFTUMxkG5vHkMxUN6eYgBQDOSGIsQI5UCjUAyk25vHUAyUt6cYABQD2XRoCCQdlAO3gmIgjKEYKG9PMQAoBvJDUQyIEMqBxuCKgXR78xiKgfL2FAOAYiA3FCFSUA40BMVAur15DMVAeXuKAUAxkB+KhkCkoRxoHoqBMIZioLw9xQCgGMgPRTEg8lAONA3FQBhDMVDenmIAUAzkh7L4xyPEe+Qg5d5DFC3VGKmpLwTler0excs0xa3f70LnH2j68cteBet/3GOKs1TnHCgGwhiKgfL2FAOAYiA/lGUxcOZcyQsYuQ9eIwd5cudArbAgbEr4SVC+a88RVAkqjf+98zYAQP/0KPRPjyJ+6XhEdRwu+Me2VOcsKAbS7c3yoRgIkqQYyNfZFuMFYiAKcte5kqiLV10hMaZ3FGKHzECTiDBT2XfLfkRs37ZmsU0b1wQAtGwzGP89OqS4znHSvf0pBhQDm9pTDACKgfxQlv54wjr3mCuJM/GalQMAeL9EAHQ6Ha7fuAMAePTXYzx69BjlyhSXjG/auCaeP0+1uc5+KAbCGIqB8vYUA4BiID+UxT+e2Uvtz5XE2XiVHABAn+hP8e3i9QCAlau3okfXFi7OSAkUA8l8KAaCJCkG8nW2xXiTGMjn6p5zJVELr5OD2jWDkHTsDF68SMPhI6dQr05V2dh1G3fD11d6z4ulOkfgioF0e7N8KAaCJCkG8nW2xXifGMih9bmSOBev/Iu1aFobXXqMQfVq5WXvXb7+xz1o02kEVi+bYFOdIzgqBrpMOjx79gxnz/yGG9ev4uHDB8iePQfy5X8HhQoXwVt53qYYyA5BMaAYeJ8YWNYD7c6VxPl4pRy0/qQeZsxehfmzhpjVGU+18fX1weplExDZqIaiOvWxTQx8fHzw25lfcen8OYTVrouGjSKRM1cuPLh/H+fPn8HuxG3Imy8/KlQIAsTvcYqBqB8LMRQDBTEUA1Gl1IMwWoNiADh3rtT5B0L/9KjZc6INvFIO/Px8kXx4pVm5pX9Ol/zjKhQDXSYdfjvzK/56+AB9BwxF5syZTVE5c+VC5SrBKFc+EEsXLcDRpEMIDKxiqWOKgVwMxUBBDMVAVCn1IIzWihhIFKo9V6avk3tOtIHXHXOgfcwnV0tiAADPnj3DpfPnENW+i0AM0pM5c2a06/Q57tz+HX/++YdcxxQDuRiKgYIYioGoUupBGK1hMSDeDeVAU1j4kBWXpKs4c+YUQmvVkRUDI5kzZ0b10Fo4f+4sxYBiQDGgGMgFE0I50Bzy8wIkZhroAVy/egXvv19SUfelS5fBn3/ckeiZYiAZQzFQEEMxEFVKPQijtSIGCrYV8U685pgDt7imtx1iAABPnz7BG2+8qWiIN954E//+96+oZ4qBZAzFQEEMxUBUKfUgjNacGAhfusVcSZyOV8iB5Q8SbSB3mpABeTEA9PD398fff/+FHDlzWR0nJeVPZPZ7tfuBYiATQzFQEEMxEFVKPQijNScG5jHuMF8S5+MVcmD5g1dbyH7syogBAOR7pwDOnj2NKlVDrPZ/4sQxvJU338vWFAPJGIqBghiKgahS6kEYrVExEJe7w3xJgXE+XiEHALBt/y+uTsEi4SFBdokBAAQULoI9O7ajfIVKFg9KfPjwAY4cOoiq1apTDORiKAYKYigGokqpB2G0RsVAatNp/bRC7vbIGHhAomZRJgYA8Faet5E3X34sXbQA//4rPJ7AyMOHD7B04dfI/04B5Hnrbcmh0r+gGEi3pxhQDESVUg/CaK2LASESUA60jAIxMBZVqBCETK9lwtSJo7Fv726k3PsTL9Je4Natm9i25Ud8FTcZ/lnfQMXAINkxKAYUA4qBLTEeIAYW3r/Eu/Ga3Qrug/kEbE0MAAA6IDCwCv788w/8dvI49iRuxZOnT5DVPyveejsvqlarzhUDuRiKgYIYioGoUupBGE0xIG4M5UBTWPggVjhpvPVWXryVJ69EqOxMBdmJhWIgiqEYWGlNMZBJTdtiQIg53K2gNSTnDhsmDUuTu2QMxYBiQDFQHuNpYkBLINJQDrQExeBlc4qB4hiKgSiGYmAxRsn7lxBQDjQOxUAqE4qBsE40pDgBudSsxFAMRJVSD8JoigHxICgHGkNyQhEVUQyk6yynQTEQFlEMlMd4thi8KqYikFd4lRyEhwQhPCQI9apXRoeWkTiZfMxUt/GHNWjXojGa1AnD6GGD8Pjvv011KXfvolWj+oK+rl25jL5dOyGiZgi6tW+NE8eSHM7P8uRlfKAYSNVZToNiICyiGCiP8WwxkHr/ptx7iKKlGiM19YUwVq9H8TJNcev3uzh56gJq1OsK/9zByBdQFw2a9MbJUxcAwGIdcR+8Sg4Aw5USE/YdQufuPTF/ZhwAIDFhM7Zu2oixU2Zi1YYtyJsvP2bHTQYAHNi3B7G9uuHB/XuCfiaN/gINGkVizabt6Ni1ByaMHK5ShjZMGhQDUT8WYigGCmIoBqJKqQdhtCeIgYg8uXOgVlgQNiX8JCjftecIqgSVxv/eeRstogYhqlV9pNzYiYun1qNpk5po9ulAALBYR9wHr5MDwHDt8EpVq+Hm9WsAgA3fr0a3PjEoGBCA1/390f6zrihVpiwAYMuGdRg9Kc6sj7nfLUfdhhHQ6/X4+6+/kCt3bhUyoxhIZUIxENaJhhQnIJealRiKgahS6kEY7QliILMNY3pH4dvv1gvKvlv2I2J6twEApKQ8RGCFkvD3z4Js2fzRpUMTXPh1ndU64j545XUO0tLScGDvbrxbKAAAcP3qFRQp9p6pPkuW1xER2RwAMG7aTNl+/nn6FK0jG+LZP/9gwPAv1U+UYkAxENWJhhQnIJealRiKgahS6kEY7cFiAADvlwiATqfD9Rt3UPDdfHj012M8evQY5coUBwDM/2oo6jXqifdLBKBWWBBqhAYipFo5q3XEffC6lYPwkCA0CKuGVUsXo3vf/gAAXz8/vHjxwkpLc17398f67XswcMQoLJw3R91EKQYUA1GdaEhxAnKpWYmhGIgqpR6E0R4uBkb6RH+KbxcbVg9Wrt6KHl1bmOpaNK2NGxe2YNzIaPj6+qBXzGR8vXCt1TriPnidHGzb/wu27juEb1esQekyBputEBiEa5cvCeIunDuruM+q1T/C47//UjVPgGIgV2c5DYqBsIhioDyGYpCe2jWDkHTsDF68SMPhI6dQr05VQb2vrw+Cq5bF4NgOSNw8F4OGzVJUR9wDr5MDKdp0+gyLF8zH7d9v4Z+nT7F04QLs3ZlosU3n1i1w6mQyUp8/x9FDP+PDchXUSUZu0qAYiPqxEEMxUBBDMRBVSj0Ioz1cDKRqWjStjS49xqB6tfLQ6XSm8qKlGiPp+BkAwLNn/+HY8bMoWqSA1TriPnjlMQdiChUugm2ow8IAACAASURBVIimzdG/x+f455+nCAmriV79B1lsM3D4SMyYPB6/37yJUmXKIGbwCMcTkXvfUgxE/ViIoRgoiKEYiCqlHoTRXigGAND6k3qYMXsV5s8aIij/YdUUjBq3AMdPnMMfd+8huGo5xC8db7WOuA9eJQfb9v8iW1ejTjhq1AlX3LZEyVKYt3iFarkZ4YqBdJ3lNCgGwiKKgfIYioEl/Px8kXx4pVl5uTLFsW71VMk2luqI+8DdChqCYiBdZzkNioGwiGKgPIZiIGxun0AQz4RyoFUoBqJ+LMRQDBTEUAxElVIPwmiKAfFiKAduAsVAJoZioCCGYiCqlHoQRnuTGBAigdcccxAeEuTqFJRhaXKXjKEYUAwoBspjKAbC5uZxOv9A2bbEe/AKObD8QaUNdDodxYBiQDGgGFiOcbIYGIq1P18S5+MVcpD+/Fx3gmIgE0MxUBBDMRBVSj0IoykGANxjvqTAOB+vkAPA8mmMWkC824NiIBNDMVAQQzEQVUo9CKMpBq/+Bkdry/ajCQJ3uDoDr4AHJLoDFAOpB8n2FAOKgahS6kEYTTHgN3FiBuVAY3DFQCaGYqAghmIgqpR6EEZTDAiRhHKgISgGMjEUAwUxFANRpdSDMJpiwBUDIgvlQKtQDKQeJNtTDCgGokqpB2E0xYBiQCxCOdA8FAOKAcVAeQzFgGJA1IByoDUkJgaKgXR7igHFQFQp9SCMphhQDIgiKAdagmIg9SDZnmJAMRBVSj0IoykGit6/hACUA01DMZBuTzGgGIgqpR6E0RQDigGxCa+Sg/CQIISHBKFe9cro0DISJ5OPmeo2/rAG7Vo0RpM6YRg9bBAe//23qS7l7l20alRfss/DB/erfN8GmYmFYiCKoRhYaU0xkEmNYiDTT/rNUTER+oqJSKu4HZdKL0XoG2UEsa1y1YC+YiJa5gw166eA31u4XWa1oKzU6wH4+f1Z+Kf8ZpwsuQA13ihnNR81OXnyJGrUqAF/f3/ky5cPDRo0wMmTJwEAzZs3x65duwTxu3btQt68eXHnzh2LbW0dLyAgADdv3jTFxcfHQ6fTYe3ataayW7duoXDhwtDpdKYfPz8/rF+/3hST/iqW8fHx+OCDD5AlSxaULVtW0JcjeJUcAIYrJSbsO4TO3Xti/sw4AEBiwmZs3bQRY6fMxKoNW5A3X37MjpsMADiwbw9ie3XDg/v3zPr677//sGj+HBWzk3kDUwxEMRQDK60pBjKpUQyke5AK0SXVwWtJ4Rh061vMKNBDUNc+dx0sv78T7XPXFZRH5gjGnuJTkc83l6B8ecBgLPhzM94+2QJDby3CysJDLOSkPi1atEBUVBRSUlJw8eJFNG3aFM2aNQMAzJ49G+PGjUNaWhoAw/YaNGgQlixZgnz58llsa+t4oaGhOHTokCluzZo1iIqKwurVr2Tq559/RlhYmCkXvV6P+Ph4REVFCQQBMEjM4MGDMXv2bNy/fx+zZs1C3759sXXrVoe3mdfJAWCwrkpVq+Hm9WsAgA3fr0a3PjEoGBCA1/390f6zrihVpiwAYMuGdRg9KU6yn9XLlyCsVl3JOnsxn9MpBsIYioGV1hQDmdQoBhZ7kInQI+HRLyiRpYCpLL9vLlTyL4Ge179C5azvC0Tg87caIuLiCLN+yp/phu/ubYMOQC6fN3Dn+QOrY6tJSkoKAgMD4e/vj2zZsqFLly64cOECACBfvnxo27YtvvnmGwDA3LlzERYWhnr16llta+t4YWFhJjl4/Pgxjhw5gjlz5mD//v148uQJAODQoUMmOTDStGlTLFu2DC1bthSUjx07FrNmzUKtWrXg7++P0NBQzJo1C5MmTXJ4m3mlHKSlpeHA3t14t1AAAOD61SsoUuw9U32WLK8jIrI5AGDctJkoGBBg1sft32/hwN7daN46SrW8KAbS7SkGFANRpdSDMJpi4MD79xWv6TKhac4QnH12w1TWJldtrHt4AI9ePMGGhwcRlaumqa7+haE48+y6ZF9vvOaPmx+uwuKAAYi7+73lgVVm/vz5qFevHsLCwjBmzBjs379fUN+hQwds2rQJEydOxIoVKzB+/HjFbW0Zr0aNGiY52LhxIyIjI5E9e3Y0atQImzZtAgAcPnzYTA4AgyA8f/5cUPbrr78iODhYUFa7dm0kJSUp2CqW8To5CA8JQoOwali1dDG69+0PAPD188OLFy9s6mfejGno0qMXfH39nJEmxcAslGJgpTXFQCY1ioF0D9bEQF8xEf9V2Iqh+Vqj941Xu0/b5a6DlfcN++hXSOxakOPvF0/xZnJjtL0yCRP/10VRG7Vo0aIFbty4gXHjxsHX1xe9evXC119/LYiZPXs2hgwZguXLl8PX19emtkrHCwgIwL179/D8+XOsWbMGHTt2BAB06tQJK1euRGpqKu7fv49ChQop+r2ePn0qyBUAnj9/rsrpql5zV0YjUndnrBAYhGuXL6FM+YqmsgvnzuK9Eu/L9nP44H4cPvjKIMNDgrBt/y+CgxPVvBMkxcBiOhQDioFkahQD6R6UfHbokuqYlVX0fw+lXw/AruJTBOXl/Yvh+NOL1jsFsOHhQXxTqJ+iWDXx9fVFcHAwgoOD0aVLFxQrVgxdu3Y11Rs/kIsUKWJzW1vGCwoKwoIFC3Dr1i2UL18eAFCpUiXcuHEDc+fORVCQ9AHu69atMxOBwMBA7N27FxEREaayPXv2oEKFCso2igW8buVAijadPsPiBfNx+/db+OfpUyxduAB7dyZabLNt/y+mH+NrqXKb4YqBKIZiYKU1xUAmNYqBdA+OfKlsn7suBt36FrqkOqafobcWWV09OFtqEUKylYafzgf1slfC3seWj/ZXm6JFi5qW2p89e4Zjx46haNGiTmtrqU1YWBh69uyJqCjhLul27dqhT58+krsU1q9fjzZt2ggOXASAoUOHolevXti1axceP36MnTt3onfv3hg4cKCi380SlAMAhQoXQUTT5ujf43O0jmyIP+/+gXZdLFuhLaRfTbB42iPFQBRDMbDSmmIgkxrFQLoHy2Jg2Rp8X36wz/vzR0H53D83omH2yvDVyS9Et7s6GbML9sL9cuvwWZ4G+OzadItjqc0PP/yAsWPHIiAgADlz5sTkyZMRHx/vtLaW2tSoUQO+vr5mctCmTRv4+fkJ5MB4KmPLli2xfPlyREZGCtqEh4djxowZ6Nu3L9566y307dsX06dPR8OGDRX9bpbQ6b3gWpo6nU7VJX5nEB4ShInTZwMABvWNxqQZcygGltOhGFAMJFOjGEj3IBcy/6uZ6Nar98vns4CjtS30pQECd6iyT51YxuuOOXAXKAYW06EYUAwkU6MYSPeg5LOUn7e2k/5iROnxBHmhHGgZioHyGIqBTAzFQBhDMbA9hsjhCRIgB4850BjqTSwUA6kkKQbydbbFUAwsxriRGBAihdesHKh7/wPnYHGiFL+iGNjQnmIAUAzkh/JeMZCMCdxhqSHxErxCDtxh6ce078rhiYViIJUkxUC+zrYYioHFGHcXA6v9E2/BK+RA7qARzUExUB5DMZCJoRgIYygGymMMhe4wX1JgnI9XyAGg7tUKnYGl3R4UAxvqRElSDOTrbIuhGFiM8RAxANx7riTqwQMSNYc9EwvFQCpJioF8nW0xFAOLMW4vBlKJEG+HcqApKAYUA8mBrcRQDIQxFAPlMdbnD+KdUA40CsXAhjpRkhQD+TrbYigGFmM8RQwIkYByoGUoBja0pxgAFAP5oSgGkhnIb07i5VAONIayiYViIJUkxUC+zrYYioHFGIoB8QIoBxpCyRuUYiCOoRgAFAP5oSgGkhkoeP8T74ZyoDW4YmBDe4oBQDGQH4piIJmB5OakGBAhlAMtQTGwoT3FAKAYyA9FMZDMQH5zEiLAq+QgPCQI4SFBqFe9Mjq0jMTJ5GOmuo0/rEG7Fo3RpE4YRg8bhMd//22qS7l7F60a1Rf09cft26b+jD/OgmIgjqEYABQD+aEoBpIZSG5O6U4tzZUAsGfHdoSHBGHfLvP7MEjNl2dO/YoeHdugUa3qiO7UFufPnrH0yxAN4FVyABiu/pWw7xA6d++J+TPjAACJCZuxddNGjJ0yE6s2bEHefPkxO24yAODAvj2I7dUND+7fE/Rz4thR1K7XANv2/2L6cQYUA3EMxQCgGMgPRTGQzECJGIheSs2VRhITNqNWeH0kJmwWlMvNl1PHjUK7Ll3xfcJONGgUianjRln6hYgG8Do5AAzXDq9UtRpuXr8GANjw/Wp06xODggEBeN3fH+0/64pSZcoCALZsWIfRk+LM+jhxPAkVKjn3Mp4UA3EMxQCgGMgPRTGQzMAOMTAinisB4P69FJw/exrR/Qbg7OlTAhGQmy8XrvoeVYKrw8/PD7XrN8S9P/+09EsRDeCVcpCWloYDe3fj3UIBAIDrV6+gSLH3TPVZsryOiMjmAIBx02aiYECAWR8nk48j4ccNaFInDH27dsL1q1dVzZFiII6hGAAUA/mhKAaSGSgRAwuI50oA2LktAcEfhSFrtmyoGhKKXdu3murk5sv0/HYyGdVr1lKcA3ENXnPjJSPhIUHQZcqEAu8WRN9BQwEAvn5+ePHihU39LPt+AwBAn5aG69euYsq4kfjqm8XqJksxECRJMZCvsy2GYmAxxpvEQH6TS86VALBj6xb06BsLAKhZtx7mz4pDs1ZRlpI18fdff2HD92sw6IvRiuKJ6/A6OZA6NqBCYBCuXb6EMuUrmsounDuL90q8b7U/XaZMKFgoANevXAEgvGOYPcchcMVAHEMxACgG8kNRDCQzcFAMAOn568K5s7h6+RIG9u4uKL94/hyKFS9hIWfgwf17+PqrGYjuFwv/rFktxhLX43VyIEWbTp9h5uQJGDBiJHLkyIn/W7Uc//37r0U56Pxpc8QOH4kSH5TEtSuXUapMGQCO3e7U4oekMYZioDyGYiCKoRhYjPFSMbBSKCAxYRM6d++FllFtTWXxyxZjR8Jmi3Jw9PAhrFq6CMPHTETOXLmsjkNcj1cecyCmUOEiiGjaHP17fI7WkQ3x590/0K5LV4ttYoePxMzJ4xFZtwYWzJ6JmMEjZGPTryZYPeXR4vxNMVAcQzEQxVAMLMZ4qRjIxkiQmpqKo4d+RkRkM0F5RGRzHP75AFJTU2Xbzpw8HqdOJKNVo3pOP/WbqINOb/k/1iPQ6XROO9VQLcJDgjBu6kwAwND+vTF+2ixBPcXAhhiKgSiGYmAxxsvF4Ju5s/FZj+iXz+e4xVzpBR9bLocrB24AxcCGGIqBKIZiYDHGy8XAyl+feDGUA41DMbAhhmIgiqEYWIyhGMjGEEI50DAUAxtiKAaiGIqBxRiKgWwMIYAXna3gbgfAUAxsiKEYiGIoBhZjKAaWBna7uZI4B6+QA3c4eEWn0ymMpBhI1YmGFCcgl5qVGIqBqFLqQRhNMXAvMRDEGMfV/nxJnI9XyIHyD17XwxUDG2IoBqIYioHFGIqBhZhXL9xhvqTAOB+vkAPAsYsTZQTWT8+hGEjViYYUJyCXmpUYioGoUupBGE0xcFsxEOMOcyVxPl4jB+4NxUCqTjSkOAG51KzEKBODCSNHQK/Xu8W3LAL0ihnw8hnFQG7FgJD0UA40D8VAqk40pDgBudSsxFgXg/Ej5a+ESbQOxcCiGNATSDooB5qGYiBVJxpSnIBcalZi5MVATgi4auAeGD68KQYUA2ILvM6BZqEYSNWJhhQnIJealRh5MRj35XDpXInb0Lv/AMFrioFcUjQE8grKgYahGAjrREOKE5BLzUoMxcCboBjI1VEMiBDuVtAcXDGQqhMNKU5ALjUrMfJiwGMLPINeMbGm5xQD+TpCxHDlQFNYn3RMrygGUoWiIvvFgOdRexYUA+srBvyPJ+mhHGgMrhgI60RDihOQS81KjHUx4MGGngPFgGJAbMer5CA8JAjhIUGoV70yOrSMxMnkY6ZyqVgAOHv6FNq1aIyGNYLRrX1rUxsp9uzYji5RLfFxjRB0a98aB/butik/ioGwTjSkOAG51KzEyIvBuC+HUww8iF4xsRQDBWIghdxcaWTPju0IDwnCvl07zNqm3L2LVo3qKy4n2sSr5AAwXP0rYd8hdO7eE/NnxlmNj1+2BM0/bYPvNycitFYdrI1fKRmXnHQUC+fPQXTMAPyQsAM9+sVi3sw4HD38swPZUgwycsVAp9NRDDwIioFjKwaW5srEhM2oFV4fiQmbBeUH9u1BbK9ueHD/nqJyol28Tg4Aw/nplapWw83r16zGXjh7GrXDG+B1f3/U+7gxLl04Lxm3cslC9OjbH+UrVkLmLFlQplwF9OgXi9XLl9qZJcUgo8SAeDAUA1GdBTGQyFFqrrx/LwXnz55GdL8BOHv6lOADf8uGdRg9yfxLl1w50S5eebZCWloaDuzdjXcLBZjK5K7X/fDhQ7zu7w8AyJ4jB+7fS5GMu3rpEkp9WFZQVj6wEiaP+dLhfCkGzhUDnpngoVAMRHW2iQEgPVfu3JaA4I/CkDVbNlQNCcWu7VvRrFUUAGDctJmS/ciVE+3idXIQHhIEXaZMKPBuQfQdNNRULr7ZiFEWfF7zMby7Xy4363TSiy3P/n0GHx/h5nyR+sKOL6ZcMXC3FQPjh4jULgkew5CxGP8W6U9hNIsRNrDYj6UePEYMZJCbK3ds3YIefQ3bt2bdepg/K84kB8Rz8Do5sPWOYzlz58bjx4/xxptv4u+//0L2nDkACFcatu3/BcXf/wAnk4+hSnB1U/mJ40koVqKEDaNRDDJaDNRTBCGDRow0z0diojaPceK2lv3fkfwEsiHGxv8d0Xaw9G9uFqOXDBLFcMVAWKd0xUBYKzVXXjh3FlcvX8LA3t0F5RfPn0Ox4rbMdUTreJ0c2Mr7JUthd+JWhH/cGLu2b0XxEh8AMH/jtGrbETOnTECWLK+jRMmSOHv6N8ydMRV9YofYNS7FIGPEYIIKuxR0Oh0GjRglnYhxLIqBqD3FQPhUW2IgR2LCJnTu3gsto9qayuKXLcaOhM2UAw/DKw9ItIUGjZpg9YqliKwbhrXxK9Eyqp1kXGDlKujeJwbzZ8WhZcO6mD8zDt169UNQtWBTTPrVBtvvSU4xEBY5Lgb2YPzwSP8hQjGQGopiIJmBJsVAtkhAamoqjh76GRGRzQTlEZHNcfjnA0hNTbXSA3EnvGrlQG6XglS5saxM+YpYsXaTov6rVQ9FteqhisaXy4UrBhkoBnYYgs507IkOV69dw7xvF1vsiGIgbk8xED51tRhI/z2k5icfHx8siv/BrDxrtmz4TlRuy1xLtIlXyYHWoRhkrBhMGGX/1RANqwUyiRhrKAai9hQD4VNtiAEhUnC3gqahGAiL1BMDIxQDqZcUA0E+HiwG1AMiB+VAs1AMhEXqi4FjUAyEY1AMJDNwJzGw/MsSL8NrdivYfgCgBqAYKIixTwwmjLLvLAUefCg1FMVAMgM3FQO3nCuJ6niFHLjD7XdfLW/LTe7mrygG9omBvVAMpIaiGEhm4E5iIG7iBvMlcT5eIQfuc4U6BR+kopcUA6utzWLsWTUwTJgUA+EYFAPJDNxJDCR+EXeYLykwzscr5ADQ/ik0pqU8yc88ioEwxn4xeDW523aWwuAvRsnWUQzE7SkGwqfuIwaAG82VxKnwgEQtYXk2FbykGFhtbTFGrW9HFANxe4qB8Kn7iIHFX594HZQDjWHpY5Vi4LgY2HMHRqn7JAAUA/P2FAPhU4oBcV8oBxqCYuBcMQBsXzGQ+2ChGIjbUwyET91HDBTVEa+DcuAOUAxk6mwTg66d2pt3bgG54xIoBuL2FAPhU/cRAyXbmngnlAPNIT0xUAystrYaE1CokPkAFjDcbVG4S4FiIG5PMRA+dUMxIEQCyoGmoBgIY9QTAzWgGIjbUwyET91QDLhiQGTwmlMZ3Q6KgUydnWLg4BxorxhMGTfasYE1Rp/YQS+f2ScGs6ZNVvU8+ui+McKhKQaiGIoBsQ/KgYahGFhtrThm4ugvzAdSCMVAjH1i8FXcFOdmRTEQxVAMiP141W6F8JAghIcEoV71yujQMhInk4+ZyqVijaTcvYtWjepb7X/Pju3oEtUSH9cIQbf2rXFg727bk+SKgUwdVwy0gXbEIP2qAcVAHOOYGMjNlUb27NiO8JAg7Nu1w6yt1Hx59vQptGvRGA1rBKNb+9Zm/RHt4VVyABiu/pWw7xA6d++J+TPjrMYf2LcHsb264cH9exbjkpOOYuH8OYiOGYAfEnagR79YzJsZh6OHf1aenJIPMoqBHTGOfkuyTQw8HVvFwNlQDMQx9omBuMbSXJmYsBm1wusjMWGzoFxuvoxftgTNP22D7zcnIrRWHayNXymbB9EGXicHgOEo9EpVq+Hm9WtWY7dsWIfRk6xLxMolC9Gjb3+Ur1gJmbNkQZlyFdCjXyxWL19qU25cMbDa2mYxmDj6S/MBFUMxMNIndiDFQOKZfTHaFgMjUnPl/XspOH/2NKL7DcDZ06cEIiA3X144exq1wxvgdX9/1Pu4MS5dOC+bC9EGXikHaWlpOLB3N94tFGAqMy6jGX+MjJs2EwUDAqS6EXD10iWU+rCsoKx8YCVcOHdGcV4UA6utM3jFQB5rZyUMGGrfLaG1jL1iMGvaZNVzie4bQzEwi7FPDCy1l5ord25LQPBHYciaLRuqhoRi1/atpjq5+fLhw4d43d8fAJA9Rw7cv5diPR/iUrzugMTwkCDoMmVCgXcLou+goaZy8c1GbL25x7N/n8HHR7g5X6S+UOfziWJgR4zjG17+6ogObms3wnghqN6xAyUqhU+kN71ztgTFQBzj4IqBRIzcXLlj6xb06BsLAKhZtx7mz4pDs1ZRsmMAgM9rPoYxXp6potN55fdSt8Lr5ECtO46ll4dt+39B8fc/wMnkY6gSXN1UfuJ4EoqVKOHYQBQDO2Je1TmyS0H66ojKt3Xs0BGYOn6M3eNrAZ1OJ/072yAGat8CuEeffhZqKQbCrhWIgQxSc+WFc2dx9fIlDOzdXVB+8fw5FCsuP9flzJ0bjx8/xhtvvom///4L2XPmsDI6cTXUNzvZtv8X0w8AtGrbEXOmT0Vy0lH8889THE86grkzpqJl63b2D0IxsCPGed/Z7VkxiPWA3QtmH+42iMFXcVNVzYUrBuIY9VcMLJGYsAmdu/cSzH8du/bADtGBiWLeL1kKuxO34t9//8Wu7VtRvMQHNo1LMh7KgUoEVq6C7n1iMH9WHFo2rIv5M+PQrVc/BFULNsWkX22wutuCYmBHjPpiMHnsKEPPDuxKMAqCux7AKNilYIMYOAP5VQiKgbBr9cUgNTUVRw/9jIjIZoLyiMjmOPzzAaSmpsq2bdCoCVavWIrIumFYG78SLaMc+NJEMgSv2q0gt0tBqlxcpmR3RLXqoahWPVTR+Er6oxjYEmM+mGNnKaQbVYVLIscOGY6pE8aqko/LcLEYAHK7FCgGwq4dFwOp+cnHxweL4n8wK8+aLRu+E5WL25cpXxEr1m6yOCbRFlw50BpcMbAjRmKizIgv6TZu6/5Dhjs9JbW5cuWq4YkdYmDcpeDcFROKgbBr9VcMiHdCOdASlt6zFAOZGGkxcORyyWJat2xmXmjntnY3QZg+Z65dYpD+ldoHJIpHoRjI19kWQ2kgr6AcaAyuGNgSI79ioOYHUvmywutXOLqt+w8Zpkpezkav1zssBmrlodfrRbsUKAbCrikGRF285pgDW69b4AooBrbEyIuB+h9PhnslDBj2hePb+mXplatXUVjBxbVcySvBsl0Mvpqm3r0UzEWPYiDs2jExEAe7w1xJnI9XrBwYv3lo+Uc6ceMDxcBKsEAMJo0ZaZ6MGqgkBtADs+d/o2JizqF3/4Gwa8WAxxiI6rQrBlLvUVfPhXbPl0RVvEIOdDqd5n/MoBjIxGTsikF6powfo4oYGB9iBg/T+ERnvxg458JHFANh1yqJgQhXz4V2zZdEdbxmt0LiUVdnYJk6geZlFAOrwZJiYLzkrzMw7V6QSUSpGBif9R8yDHETx6uao5rYIwazp09zWiYUA/k622Lk379qXUXWWXC3R8bgFSsHbgVXDGRilK8YOPObhfQqj31iYCQm3XXrtULv/gPsEgM1Ea+qUAzk62yLkX//EmKEcqAllLxZKQaGEpk6px1vYBpXL7xfgoNiYHyqNUGwVwzUXDUwiliPPn0pBhbqbItR8P4lBJQDzcEVA6vBGXaMgRTGGxFNHT9GNTEw0k8jgnD5yhXDExetGIihGMjX2RZDMSDKoRxoCIqB1WCLYuDsVQMjxm+0UyeMVU0MjC/7DRrisiOyjeNOnz1XlJ/rxCAtLc1CLcVAeYz8+9e8I0IoB+4BxcBQ4sIVAzHGD+9pZvdLsF8MjM9iBg91yRHZpiPBNSIGer0e0X1j5GotpEExEMbY8/4l3g7lQOtQDAwlGhID4NXuBSC9IDguBsan/QYOUStVm+gVMyDdK9vEQO2zFOy7AyPFQBij4P1LiASUAy1DMTCUKBCDjNqlkB7hh5d6YmDk2PFkBzN0BNtXDDJmVwjFQHkMVwyI/VAOtArFwFCiQAxcfR0hvV6PaRPGqSoGALB0VTyuXL3qguMP7BADqH8KaffefSVGoRhQDEhG4FVyUCcQ2LnFvMz4aPwJDwLaNAIO7DbUXb4AxHYFPg4GWtYFhvU2lInbGX/UgmIgX2ce4zqMH4rTJo7DF0MGvix1TAyM23nm3PkZdvyBYZeCfWIwxykXPjLPhGKgJMZxMQgPCUJ4SBDqVa+MDi0jcTL5mKB+z47tCA8Jwr5dOwTl169eRZ/PO6Fx7VCMGjIAjx//bXkgolm8Sg4AIH4J8OSxdF3iUcPP5oNAzwHArImG8jGDgFr1gR92AkvWAyE1gVEDhW3Ez+2GKwaGEhvEYPLYjN+lIEf27NmhlhgY6TtwsErZSfNqZcI+MXAGwlUDioHyGPVWstESiwAAIABJREFUDLbt/wUJ+w6hc/eemD8zTlCXmLAZtcLrIzFhs6B8+qSxaNW2Pf5vSyIimjbHovlzlA1GNIfXyUHT1sDiedbjnv0DZHrN8PzRQ6B4SSBzFuB1f6B+E2DJOickp+RrMMVAcYyrMF0OWQUxMMY48/RGqZUJWz6snLtqQDFQHuOYGEj97+l0OlSqWg03r18zld2/l4LzZ08jut8AnD19Cg/u3zPVXbpwHoFVqsLPzw8fliuPwwf3yw9INI3XyUG9RsDFc8Cl8+Z1xt0C9asAy74BYr80lPcdCgzpCfT/HFj+LXDKiceJccVAvk4qZvLYUbJxrmTahHGC146IAWBYPUh/hoTa9IqJNU/LBSsGUqNQDJTEqC8GgOE6Ewf27sa7hV7dXnzntgQEfxSGrNmyoWpIKHZt32qqK1goAMlJR/Hff/8hYeN6PLx/X35Qomm8Tg50OiB6ADB7svl7LfEosGEvEBQMtOkCVKxsKP+oNrByC9ApGvDxMbTdtFb93CgG8nVyMVq9jatOp0PcJMMKgqNikJGnnNksBk7Y7oZdChQD5TGOiYH5YAbCQ4LQIKwaVi1djO59+5vKd2zdghp16gEAatatJ9i10HfQUHwzZxZaflwXjx8/ho+Pr4KBiRbxmrsypqdYCaBocWDbj+Z1/lmBgSOBnu2BCpWB7DkM5T4+QKmyhp/6TYD2TYCPm2ZQwhQDizFavoVr3KTxLy+L7LgY9BkwCDOnTFI/SXFaNojBnBlxJjFT7+9AMVAeo9KKgUSM1N0ZL5w7i6uXL2Fg7+6C8ovnz6FY8RIoVvx9LFgWDwC4ce0q9uzYLj840TRet3JgpGMP4IcV0nXZcwKNWwK7Egyv2zUGLpwxPP/vP+DiWeCdAhmTJ8VAPmby2FGaFgMjbVu1fPXCw1YMjLfHVuvvoDf1ayEDisHLGJXEwAYSEzahc/de2Lb/F9NPx649sOPl6kGnVs1w8Ke9ePz4bxz8aS+q16hl8xhEG3itHGTNBnzSXr6+cUvgxMuzd76cAqxYCLSJACLDgNVLgWHjMyBJioHiGC1ToXw5w0GKjoqBk379nsbjDezYlaCmFFAMbIlx3oqBHKmpqTh66GdERDYTlEdENsfhnw8gNTUVfQYOxYLZM9EmMgK/37yBT9t2UD4A0RRetVtBfJph7QaGH6k6Xz9g5BTD86LFgZFTbevbYSgGimPcAZ1Oh+mTJ5gui2yvGPSJHYiZUyern6AdYuCM2zN369VHPgOKwcsY54uB1C4FHx8fLIr/waw8a7Zs+O5ledkKFbF4tRMOyCIZjteuHLgDFAPrMe6A+GBJ+1cM1NsOxm/qPWNi7RKDjINiIIxxphi49/uMqAvlQGtwxUBRjFZPYZQi/dL79MkTzANsEAO1pu9Xd2C0XwzUPt7jSFKSdAYUg5cxFAOScVAOtISlb2YUA7fHuIIwY/LEdIXGB+VikBGnbloTgzkz4szKHGXh4qXmGVAMXsY4UwysVhEvxGuOOVDzngfOhCsGSmLcdxozHt0/atgQfDnWsIpg64qBWt/Ye/brL1luTQycgfBvSjEQxjh/xSB9VXhIkHxnxGvwCjlwhw8TnU5HMVAoBlPGjZat1zLpP9TffPNNALaLgbNRIgbOeD+9upcCxUAY43wxEL90h/mSOB+vkAN3OBdeEoqBKMZzJi2DDGa8GFi6YJFSMTBe+Ej99xXFQBiTgSsG6WLcYb70pLlAq3iFHACA/qna5xqqi85ftN+DYiCKMdRNGTfaSR9MGkCJGOjh0O9vbCfepWDrigHFAJ4jBqJyqdMYtQR3e2QMPCDRDaAYCOvcWQyMv0ufAYNEFcInFuZ01X9/V4tBt169zRKhGEgN6swVA34TJ0K8ZuXAbeCKgShGWDdg2BdmHVic1izG6KUehNGynzuWYuT/QHbvShDHOLB6kH7VwFYxmDtzul1jWoVi8DLGFWJAiDlcOdASFANRjKVZ0HvFALD/23v6bWqrGEi9VgWKwcsYV4gBDYFIQznQKBQDioHiGBswSoU9YpC+vVp069n71XgSz8QvKQa2t6cYEHugHGgeioFUB94qBl9NmyIVqZie/frbLQbOuPCRaTyJZ+KXFAPb29siBjwBgKSHcqAx9FKvKAaCDrxVDNTAXjEAnLdqQDGQGpRiQFwL5UBDUAwoBhZj1JzAbRQDZ60aUAykBs1YMSBECsqBlqEYCDrwdjGYNU2lWzVn4JUPLaYh8Uz8kmJge3tbxIArBkQOr5GDlHsPUbRUY6SmvhCU6/V6FC/TFLd+v4uTpy6gRr2u8M8djHwBddGgSW+cPHUBACzWGYn/v+3Q+QdizQ+JDmRqadJQEkMxEFVKPQij3UAMgJdXVXRgNo/u199OMVD/olNdTQciUgyU1imLcUQMXhWEhwQhPCQI9apXRoeWkTiZfEwQuWfHdoSHBGHfrh2C8pPHk9CtfWs0qlUdPTq2wW+/npD/RYim8Ro5yJM7B2qFBWFTwk+C8l17jqBKUGn875230SJqEKJa1UfKjZ24eGo9mjapiWafDgQAi3VGlizfhDafNsCS5ZvszFLBpEMxsCHGc8TgqzjDgYj2fEibtrGdYjB35gxVVxUoBlKDakcMjGzb/wsS9h1C5+49MX+mcLdSYsJm1Aqvj8SEzYLySaO/QL9Bw7B222706j8IE0eOkP9liKbxGjkAgJjeUfj2u/WCsu+W/YiY3m0AACkpDxFYoST8/bMgWzZ/dOnQBBd+XWe1DgBu30nBkaTfMHv6QBw+cgp3/rhnX5KWPlsoBjbEeI4YCELt+JDW6XSI7hsjWWdNDIwxTrtcssRLioHt7R0TA3l0Oh0qVa2Gm9evmcru30vB+bOnEd1vAM6ePoUH91/NdX6Zs0Cn00Gn08HH1xc+vr7KByOawquukPh+iQDodDpcv3EHBd/Nh0d/PcajR49RrkxxAMD8r4aiXqOeeL9EAGqFBaFGaCBCqpWzWgcAy1dtQWSjGsj+ZjY0jgjFivgE9O/TxrYEKQaCDigGBr6Km2L6gFbzQ1qZGKh7loJh1YBioLROWYwjYmDZFNLS0nBg7268WyjAVLZzWwKCPwpD1mzZUDUkFLu2b0WzVlEAgH6Dh6Ffj8+Q+vw5fHx8MGnmXIv9E+3iVSsHANAn+lN8u9iwerBy9Vb06NrCVNeiaW3cuLAF40ZGw9fXB71iJuPrhWut1gHA0hWb0fqTegCAqE/qO7Br4RUUA3tiPEsM+vXqAcAJ91NQKAbzZs1QbRyKgW11ymKcJwbhIUFoEFYNq5YuRve+ry65vWPrFtSoY5jratatJ9i18M2cWRg5YQp+3LUfw8dMwHdfUw7cFa9aOQCA2jWDMP2rFXjxIg2Hj5xCty7NBPW+vj4IrloWwVXLokvHJihWqgm6dm5qsS7p+BmcOn0JNet3E/R1/MQ5lC9bwq48KQb2xHieGBQpXFiqtU2IdykoFQM1oRjYVqcsRl0xEMdI3Z3xwrmzuHr5Egb27i4ov3j+HIoVL4EbV6+iQqXKeO2111C+UhAmjBwulThxA7xu5QAwrAJ06TEG1auVF3wjK1qqMZKOnwEAPHv2H44dP4uiRQpYrVuyfBMmje0N/dOjpp/xo6JVWD2gGCiP8SwxAPQmMbD3YECpdhktBjqdjmLghmIgR2LCJnTu3gvb9v9i+unYtQd2vFw9KP7BBzjz26/4999/8WvycRQtbt+XI+J6vFIOWn9SD8eTz6HNp/UF5T+smoKxExci4P0I5HwnDJOnL0X80vEW654/T8XWxJ/R/bPmgr56dG2BzVv34/nzVJtyM5vqKAYKYjxPDL6Km2p6Ze8uBXE7W8Vg4phRNo8p3o1AMbCtTlmMumKgrA5ITU3F0UM/IyJSuNoaEdkch38+gNTUVPSOHYyF82ajRcM6WLlkEfoP4dkK7orX7VYAAD8/XyQfXmlWXq5McaxbPVWiheW68yfXmpVlfzOb4GwGJSh5H1MMzCqlHoTRbiQGxlMW1TpDwLhLwZ4Vg+zZs9s0ljHnbj17K/zQVxJDMZDKQC0xkHv/Su1S8PHxwaL4H8zKs2bLhu9elhcoWAjT530rlThxM7xSDrSNPRMLxUAY495iAKhzAOLlK1cMQ9i5K8FWQeneq0+6HoXPxC8pBra3d54YEGIO5UBT2DPpUAyEMe4pBoAevWJiJZoo+LCyEOfIMQY9+vSzEmP+P0kxkBpUy2JAQyDSeOUxB5rGpomFYiCMcV8xkG7iOjGwHkMxEMZQDIhn4TUrBzr/QFenYB2KgYIYigHFQDqd9C8oBtZi5BMKDwmSrSPeg1fIQUbfbc4epPbtUgzMKqUehNEUA4qBWQzFQBhjeT50h/mSOB+vkAP1rwvvfCgGZpVSD8JoigHFwCyGYiCMsf7+dYf5kgLjfLxCDgBA//Soq1OwiORuD4qBcFyKgcU4ioE4hmIgjFH2/pU6jVFLcLdHxsADEjUGVwzMKqUehNEUA4qBWQzFQBhj8Y9PiBmUAw0h+aH0ssbsGcVAMjWKgXQPFAP5OttiPEsMuDxP5KAcaA2bPvSVxFAMhDEUA+UxFANhDMWAeA+UAy1BMRCOSzGwGEcxEMdQDIQxFANiP5QDzUIxEMZQDITFFANhDMVAGEMxII5BOdA4FANRNMWAYmAWQzEQxtj7/pWvIt4H5UBzWPrQVxJDMRDGUAyUx1AMhDEUA+K9UA40BcVAGEMxEBZTDIQxFANhjJ3vX1NrGgJ5hddcBCnl3kNU/qg9zp1YCx+f10zler0eJco2w+6t81GgWANTua+vD9Ysn4gmEWEAhBcpEtcZif+/7fi0/VCsXjYBLZvVcTxpioFkatmz50BIcFUULVIYb2R7A9Dr8eDRI1y6dAk/HTiIJ0+eQA89Ro0YYSkrAV+MGo3RX34hKJv39QL8fue26fX/8r+Dbp9/JogZPnKkKb938r+DWrXCUKhgIfhkyoTf79zB7r17cf7CBcEs/26BAqhRIwz/e+d/yJw5M+7cuYNdu/fg3IXzprjxY8aY4oeOGGFVDHLkyImPG9RHsWLvAQAuXLiIH7dswqOHj0wxAFC4cGF07fKZWQ+Dhg6R3OTVQ0IQ0bAhAGDgkMGSMb6+vqhapQrKfFga+fLmg06nw+3bt3H4yBEcOXpE+PfTA6+99hrCQkMRVKkS3nzzTTx8+AgHfz6Ifft/AgBMmzwFSomJ7W+WD8VAHGMx2ZcPwhjjhYZ0Oh3y5X8HMUNHoEy5CoILEPn4+CD//wqg4+fdERxaAwCQcvcuenZpj/iNCaa4P27fRrsWjQX9a/1CS8SL5CBP7hyoFRaETQk/CT7Ud+05gipBpfG/d94GANOVFNdu2IWojsOx4ruxpnhLdQCwZPkmtPm0AZYs32S3HMi/1ykGAPB23rzo1K4dMmf2E5S/lScP3sqTB6VKlsK3332Hh48eWspKEcWKFX0lB3qgWNGi5kEmMciPzzt3hI+vr6mq4Lvvol1UFFasiseZs2cAAIUDAtCpQwdkyvRq0e7dAgXQrk0Uli5fjnPnz5sPYUUMfH190aVTJ+TOlctUWrpUSeTLlxczZs1Caurzl/0ARQoXkevG7GmFcuVQv149izFv5cmNTh07IU/u3ILuChUqhEKFCuG994phxcqVgkatW7VC2bJlTbFvvZUHjRs1wv+3d57hUVRtAD2bpoQOoRMSauhIi5TwUYIEpEgsIE1RUJoiKooFC0gRFAQrioBIF6RICb0ZFAKEEAEhkIReE0qAKEnIfj82md3Jzmw2JoFd9j3Pw8Psve+8984kuXP2TnNzd2P79h02tlUfEQOd/uTiVMKG8AiMRiPh27cyY/pUvp0zXykHSE1N4c/fdzJ14jhatm7Lrp3bmfnNl1y7mqjKczByH+07Ps5boz+23aDgULjUaYU3hvfhxzkrVWVz5q3mjeF9rWKffKId82aNpUffd+yqu3Axgb37D/P1F2+zZ+8hLl5KtFovO+wY1lxaDIxASPv2VmJgSeHChXgsONhWr3RQN2Y0Gs0ykFFVrWpV3X3Stk1rRQzWrV/PnLk/A6ZvXh3am/vTpnVrRQyWrVjB/EWLlbj2Oe63qS+NGjZSxGD12rWsXrsWAJ+SJWnUsGHG9pjWqOznD0BkVBSj3nvX9O/dd1UZK5SvwHN9+/Bsz554uJtn2dStgpenJy/2txYDSxo2eITApoHKSrVq1lTE4Of58/hmxrekpaVx69YtAqoH5HD71f0RMcgak/MZg6wYDAaaNm/B2dOnNOrcTL+3nUwzrutWrWDspKlWcQcP7KdRU3nksbPhMjMHADUD/DEYDJw+c5FKvmW5kXSLGzdu8Uj9GprxTz7RjtTUNLvq5i9aR2i3thQtUognurZmweIw3nzNWjqyRWYMNLuW+dHXt4JStuiXpcTGxeEG1KtXV5n+rlbV9O34o08+UQ2CYz80nzb4cOxYm/vx0qVLVPL1xcvTk5SUVLy8PPH1rcjFixcpV66c1fYkJd3k9JkzlPLxITIqirQ08+9G0WLFlGV3N3eu37hOQW9vDh85wt27d5W6MqVLW/VDn4z9a4SaAeaD6t9/H8VgQNkXtWrWZE+E6Zuem5sblfx8Abhw/rzVpmcuvvbqKwBcv3GdYkXNfVeHG3k0MBAfH5MYJCcns2z5r8TEHKdEyeL07tmLsmXLAhDUoiURERGAkYaNGirxB6OjAetTGm++NVLV1tTPPlfqLE8jAJQtV47Xh7+Gp6cnly5dYsoXU0lNTcXLy4uRb46klI8PqampTJn+BRfPX0APEQNt0tPT2bVjG74ZUgnW7zYYPPx1AMZPma6ZIzrqAJcuXuCrzyfjX6UKb7z7IZX8/TVjBcfBpeQA4LVhvfjxp5WM/WAwC5esZ+igZ/Ik788L1vLllLcA6NOzEyPempJzORAx0OyaZcy///yLZ2HTN3SfkiVITEggITGRfZGR7IuM1GlKc8RXLWSNiIuPp2zZslTxr8zRmGNUrlwZd3d34uLjs8iBac3Va9conzw9PAhq2VKJOPTXX8ryj3Nmq9oqUdx88L1+4wb2YRYDgDJlzFJx69YtVaRlXcUKFfHyNM261KtXj/bBwdxOvk1Y2HoOKn00Jb156xY/zJzJ2yPfytKqealunTpKydp16/jrr0MYMXL+/AUWLllE72d7Ex0dTXR0tLJOxQoVAbhx4wZPdn+SwKaNSUq6yarVqzl8+DB6Pw+9vXDhwgXWrFlDaGgoZcqUoUuXLqxYsYJnnn6GUj4+AKxZs0bEIMtq9ohBSFAgBjc3KvpWYsSo95TyzNMKaampRO6NYNrkCYT26KWbZ96yVaY209M5feokn43/mK9m/pRt+8L9xeXkoH27QL74agF376azZ+8hBg98Sjd2xW/b8PTU3kWWdfsP/M2hI7G06zRYFXPg4DEaNvhvU6UiBtoxkVFRtG7VCoDHgoN5LDiYpKQkjsUcJ/pQNKfPnM3Shq3e6vc1Lu4kLZo3p2q1qhyNOaacYoiLi6dlixa2to4hL79MmTJluHv3LnsiIli/caP25hmNtGxhlojdu3dnFNvRZ4uQQgULKsupaalYvnG3UKFCynKVKpWV5Uq+phmEhx56iN69epF49Rpnz50B4NDhQ6z87TeSbiTZ2EqUmQGAYzExqn19/vwFPp8yxWqdYkWLAlCuXDlFskqWLEn/557ji+nTOH/+vN1iYFow8vuucGrWrkWtgJq0ahmEp4cHTRo3BuDvY0eVCx2184gY6JHdRYMenp40aNSY5OTbduUzuLlRyc+f0/HxdsUL9xeXuuYgk2eebM/AoZ/QqkVD3XeXr1y9nb4vfsCSeROzrZs7fw2Txg3HmLxP+TdhzDDmzl+T676KGKiXdv4ebvEt10SRIkVo2qQxA/q/QN9evfD08MpY67+JAUD8qZOkp6dTrUpVjJiuN0hPTyf+lPW5V1Ueo5EiRYoApmn8YsWK4unhYd2W0UidOrVp/uijACQlJRGxb99/ul3Rw8N8EaTRmK7K4WlR5+HhztVrVzl//gITJk1iy9atgOm8crs25gtrf54/P1sxAHj44YeV5aSbSTqh6p+ip8UFm78uX87KVaZvlW5ubgS3C9aYPNP4fc9SZzQaWbRoETdv3cJgMNC8WXPANIuycOFC3X0qYpBtR2ySmprCql+XUq9BQ5txA3o9zd+HD5Gens7J+Djq1K+fo3aE+4PLzRwA9O7ZkWlfL2LGl+9a1WXesujp6cGSeRMJ7dbWZl1qahrrN/3J/l3zVXmGDnqGJi378dmE13RnH7SRGQNbMXfv3mXFylXs2bOXBo/Uo2aNGhQtUlQJqV6tGh3aB7MmbJ2t3troq4mUlDucPXeOSr6++Pv54VOyJKfPnCElJUU/T8Y++GL6dBo1akTHDh2oXas2dzrfYenyFRYrGClVyoceTz2V8dHIyt9Wk5qamm1vtX5Md9PSlIshTbJrFt7UtMycRjZv2cLmzVuUuj/37Ca4XTsAfCuar+Ww96v77dvJFC5smpkoUKAAt2/fzrK+9U8xLS1NEYQDUVG4u7vT/QnTbW5+fpWytJG9GGRy8+ZNfln6CwNeeFEpW7R4MTdv3tTpvohBNh3RJfOaA++CBaldtx7DR1qPo5aMHP0x0ydP4MK5c9SuV58337X/FmPh/uGScuDl5UnUnoVW5Zm3KmqhV+fp6UFM9HKr8qJFCnH8rxUaa9hCxMDemHMXznHuwjnWha2nbNmyPFK/vvItvHbtWtZyoNuGPnFxcVTy9aVjhw4AxMbGWa2pdbC6nZxMRESEsl5AQE2LFYwYDAZCuz2BZ8b5/w2bNim3OmqjLwZgOkgXLWYSJHd3T9VpBdM1CNYHMmPGepkUzDw1ob/LrSrOXzhPQGHTxbzVq1Uj6uBBpc7d3Y3u3Z6gdOnSbNi0kdi4OFN/bt+ieLHiANy5c0fVSuFChS3ayPmBrHy58qrP7hp3Wpi6L2JgIxTQP6Vgz/MJssbUqlOXGXOtx1vBsXFJOXAaRAysFoe/MowSxU0Hl7D164k8eJDEhATOnzuvxDzkZZ66zn4D9PsRezKeNq1bU7GC6Vt13Mk4nXWN9O75LKXLlKZIkSJ8NuVz0tPNCZWDVMa+atqkCf4ZV2vv27+PHTt3Zt89G9twOeGKIgdFChdS1V26dMlq+zIXvQuYTwtcvX49R2IAcDA6moAaJjl4ousTpNxJ4URsLKVK+RDaPRR/Pz8AQr1D+fwL0/UH58+fV+SgUEFvUi3u6khOTs5+Y/XEoHx5HmvfPiPEJGA9e/Tk1KmT3Egyn/IQMdBuxP55A8FVEDlwMGTGwHbM30eP0rK56Zxyp44d1Q/pyeDUmTMa62c/iGblzOmzpKWm4uHpSVpqKmcyL3ZUrWteOfPq+Pr16qnkIC4uTokrXKSw0ue4uHhWrPpNv18ZTBw3XrP8nfffB4wcizlG9WrVAKhVq5bq5/r30WPK9g166WXKliuLl5cXc+fOpVSpUkrcwYMHzZuksZT1oxEjkQciCWrRkvLly1G4cCFefOEFzX7u+H2Hsn509F/UqW26y6Fx48YkWdxdEWPxhMic4O7uTq+evfDw8CA1NZV5C+bT/7nnKVjQm169evP9D99jNBpFDLLviCAoiBw4EBpDhHWJC4uBESPbd+ygerXqlC7lo9lySkoqGzdvzrK+PWJg3aG0tDROnTlD1SpVOHX6jOrZBVnZsHkj1atXw8vLi25duirl/965w/qNG5TP7Vq35SEv0+mEKlUqM37sWFWed0eP1u+rTuf3ROylRfPmlCheQnm+AUDi1atEWtzeeeBgFE9VCQVgwIvmc/NXryYSHh5ukVG9ZN2qqS4tLY3Zc+fw4vMvUL581mc/mNh/IJK9+/Yp6SIPHKB5s+b4+/vRpXMXJe7fO3fYuGmj1fr2HL7at29PxYxrJrZt3050dDRbtm7hsfaPUTMggFZBrVSCorc9rigGogeCHi4jB5bvRnBoZMZAJ8ZUkJKayuy5P9GqZUtqVK9B8Yzp9Fu3bxF/8iQ7fv+dq1evWe1HG2O67paA6Vt/1SpViIuPsxmZmHiVH2fPIeSx9vhVqsRdo5G4uDg2bNzIlSsJSlytAO0Hbul0LPtII6SkpDBj5ky6Pt6ZGjVqYACOnzjOb6vXKhc5GoE9ERHcufMvrYKCKF2qDOnGdI4dO8aadev4599/cyQGmVy/dp3pX31JYNOmNHykIRUqlOdOSgqXL10i/I8/OHT4kCpdevpdZv74A48/3plHGjTAy8uLkydPsmr1byQkJGZpK3vKlS/PY8Gm0wlJN26weYvpgssNGzdSr259ypYtQ7euXYk5EcMFjWcdiBhYk/UhR4JrYjDa87ouId8xGAyM+mAMAJ+O/ZB3Phyjqhcx0GtKvy4nYqC969RrmmNsHTwtP+jspf9wu6L9MdYHMt2Dfo5j9OpsaIXG/rSO0ThI2qjLWYz+gV3EwMSSBQvo2acPYGTJAv1bPwXXwiVmDvSeZeCYyIyBOkbEwP4YEQN1jIiBViM2/35xjvFSBCb/cQk5AMd/RahpKk/EQB0jYmB/jIiBOkbEQKsRO369nGSsFPIbl3xCorMgYqDXlIiBZg9EDDJiRAy0GrHn71cQMhE5cFBEDPSaEjHQ7IGIQUaMiIFWIzb/frPtheCKiBw4NCIG6jZEDDR7IGKQESNioNVIzv5+BcGEyIGDITMGek2JGGj2QMQgI0bEQKsRe/5+BUELkQMHwp4LcEUMsq4vYqBeFDGwt86+mAdbDMQPBD1EDhwOW4OGPTEiBjZjRAxsxIgYaPVAxEBwRUQOHAoRA3UbIgaaPRAxyIgRMdBq5D+LgT1Tl4LLIHLgBIgYZF1fxEC9KGJgb519MSIGguBSchASFEhIUCAdWz1K/x6hREdFquq3b95ISFAgO7duVpUfPXKI5555gs5tWzL4+d5W6+UnIgZZ1xcxUC+KGNhbZ1+XXqHTAAAe10lEQVSMC4qBBnpjZWZ5SFAgndu0YGCfHuzasU1ZL+HyZZ7t1kkz554/wuUBRk6ES8kBmJ7+FbZzNwOGvMKM6VNVdZvC1hIc0olNYWtV5YvnzeXpXn1ZtnYTrYMfY/nihfekryIGWdcXMVAvihjYW2dfjAuKgY329cbKDeERbAiPYOWm7Tw34GWmThwHwK6d2xn56mCuXU20ypWSksLsGd/ob4fgcLicHIDp2eFNm7fg7OlTStnVxARijh5h2OtvcfTIIdUv+PGjR2gf8jgFvL3p2OUJYo/H5HsfRQyyri9ioF4UMbC3zr4YEQOtGK2x0lznhsFgoH2nxwFYt2oFYydNtYoDWDJ/Lm2CO2jWCY6Jy7xbwZL09HR27diGr5+/UrZlQxgt/9eGgoUK0TyoNVs3ruepZ/sAcP36dQp4ewNQtFgxriYmaObNe0QMLBccXQwKFy7Ee6PeAUzflD4aO8YuMShcpAj/axlEzZo1KV6sGOnp6Zy/eJGIiD3s3x+pii5cuDAfvPeeraTExsUx44fvKVy4MB++P1ozJiUlhStXrrB3/3527dqVsf+tf4r169WjX5++3LmTwugPP1BqfSv60r59MJUrV8HTw53ExKvs+uMP/tz9p2q/iBjo9McJxAC0x8qspwYGD38dgPFTpmvmuHD+HLt2bOOrH3/ip5nf6bQkOBouJwchQYEY3Nyo6FuJEaPMg+zm9esYOmIkAO06dGTGl1MVOfBw9zD9MWW8rcxgyL8JF5kxyLq+c4gBgI+Pj7KckJhglxhUq1qNfn378pCXl6rWv1Il/CtVolqVqixZulTpU6lSJW0lBWDj5k0ZsaV0Y7y8vKhQoQIVKlTgIS8vtmzdkqVnULtmLfr27oObmxuXr1xWaqtWrcKglwbh7u6urFOuXDmefuopHn74YbZu26rKI2KQNcaxxEAPvbEy88VMaampRO6NYNrkCYT26KWb57tpUxg49FU8Pb10YwTHw+XkQOuNY8ePHeVkXCxvDx+iKj8Rc4xqNQIoXrIkt27donCRIty8mUTR4sXypW/2/M2KGGQTc5/EAKCUj/lgfPmKrdkl0/p+vpV44fnncXd3J/mff1i2fDnHY2Lw9a1Irx49KVykCI0aNSImNpbIyEjASCmf0kqWqIMHWbhoUZZ+m5dKW8hBVNRB5i9aAICXpxfNHn2Ubl27AtCiWXNFDjLXrl69Gs/166cIwJUrV5TaLp27KOXLli/n2tWrvDRwoClXi+Zs3bZVxECvPw4mBrY+Zfd2Rg9PTxo0akxy8m2bcXv+CGfPH+HK55CgQId/86PgotccZGVT2BoGDHlVudBmQ3gELwwayuaMCxNr1q7Dtk3ruXPnDls3rqdGQK187I3MGFguOIsYAJSynDlI0JMD0/oGgxuh3bvj7u6O0Whk3vz5HD58iJTUFGJj41i91nxRbLNA8+u8S5cyt2E6YOv8HMgqK5eV5ZTUFHbv2aN89i7orVq7cmV/BvR/AU9PT4u2Lisx5cqWU8r37t1LbFyc8rnAwwVEDPT640RiYA+pqSms+nUp9Ro0tBlnOa5mfhYcH5eXg7S0NPbt/pOuoU+pyruGPs2eP3eRlpbG4926s2TBz4R2aMPyxQvp0ee5fOqNiIHlgjOJARhVpxUyD9xarRiNUKtWLcqWLQvA4SNHiIuPU3UkNjZWWcvyYOyT5YCvJwYYoZSGSGTW+flVUtVlru1b0ZeBLw4kKekmZ8+dNbd12dzWCYu++fv70bRJY+Xz3n17UTZSBxED7ZT3/RoDO/0g81bGHl1COBi5l1feeNu+FQWnwqVOK2gZq4eHB7MX/2pVXrBQIeZklNdv2JgFy9fke//0EDHIJsYBxADU39SvWM0cmMUAoH69ukrNgagDVh35584dZdnNQuEtryPo06s3fXr1VrUSGxfHjO+/z4g1n4K4kpCAwWCgwMMF8K/kx5NPhip1+yJNFz2WL1+eQS+9BEYjP86ezUsDBygxlyzkYsGihTzXpy81atRgyKDBACTdSGJH+E62bd8uYmAV48hioL2i3rd7e77124qRWQPnwaXkwBkRMcgmxkHEwN3NneIW16IkqK45UIsBQMUKFZXl02fPWO3OwoULK59vJN0EwMPdnRLFi9voC2zcZLoY0cNDHTti+HDN+BOxsez6YxdlSpdm0Esv89BDD/HjrFlcu3aN4sWKZ/TbSGKi+dbewKZN8ff3U+VJvHaViL17Maan6/ZNxEA75X0XA0HQQOTAgRExyCbGQcTAaIQSJUrglvEV/8aNG6SkpljFWFKsSBFl+fZN8wVdmWG+FSsoZfHx8WCEkiVKqtoYN3GC7gZZ9ifr9vx75w6XL1/iYHQ0v4eHU7x4cQa/PIhCBQuyfOUKjsXEUK5cWQwZd+dcu36N1NRUAAKbNKVbF9OFjFu2biE2No6XX3qJyv7+9Hj6aWbPmWNjT2nsCFWMiIFWI/dyxkAQMhE5cFBEDLKJcSAxAPAppXVKQVsMAO4ajcofX8GC3iQl3aRZs0fx8/NjxcoV1K1jfdpB1UbWaxpUPxaj6pTC8ePH+X7mTHR+inQK6UiRDFl5snsoT3YPxZISxUsw5qOP+ejjj2jTurVSvuuPP7h12yw2ATVqWG8o9v48RAy0GrmXYmCzP4LL4TJy8MA801vEwOHEANR3Kly5kqAZY7n+hfPn8fc3PVimZkBN9uzdS/ly5Wn0SEPKlSlLmTJlADh2PIYTJ0wXAFpeb3A5ywWG5kWjTqy2GABU8a9sY1tNXLxwEYCSJUsoZUk3b1KsqPlUiqUoWLUlYqBazZHF4IEZK4Vc4RJyYHugdwwyp3BlxiCbGAcUA4DSqgcgXbGR3lT45+7dihx06tSJm7dvszZsHWXKlMHfz3Q+/+q1qyxdukxZSy0gl602yHJfq295vGwRY92dsePHqbcN6N3zWZo0aQLA8hXLCd+1y7RtCYmUK2e6e8LPz486tcy39UZHR2tsqe6OUPdZxEDVyL0UA+sUjj9eCvmPS8hB5oHX0RExyCbGQcUA1FP+XTt3oWvnLlYxcXFxfP/jTDCaHmBUtUoVAgMD8S5QgP79+lnFnz93geTkZKXf6tmABF0xMMVa3KlwOevzEFSbo942ZXvMcnH5snmWYuu2rfTpbXpy6KtDh6liNmVcDKlKLWKgWs3RxECrP84wXorA5D8uIQfg+LfQ2JzKEzFwaDEA9bd6PTZt2azqyLIVK4iLP0mzZs0oX64s6enpnDl7hr1799Glcxfq1q3D888/x4+zZgNG1RMPr1gcsLVeopT1tEJOxACgtOo2SHNb+yIjSU83EtyuHaVKleKf5GSiDx1i/fowkv/5R51HxEC1mjOIATj5WCnkGS4jB06LiIHDiwGYp+ZtnUrQ2p2RUZFERkVaVZw9d5YeTz/Dpk1blMKPxo7RyKP9w/vo44+s2tIu0P55mF+ypNHnA5FEHoi0qlflETFQreYUYmBzkBFcDZEDR0bEwCnEwHaMvhjY2PlcSUjkmxkzbMbIa5e1eyBioL2+uVTEQMgel398ssMiYuCyYmBfjIiBVg9EDLTXN5eKBQj2IXLgwIgYaHdExEDEQKsHIgba65tLbf2NCoIakQNHQ2YMRAxEDHIQI2KQV2IgswqCJSIHjoQ9t+eIGIgYWNWJGOgsmCNFDDSbshkjuDQiBw6G7WOSiIGIQdY6EQOdBXOkiIFmU4JgC5EDB0LEQLsjIgYiBlo9EDHQXt9cmr0YqGJEGgQLXEoOQoICCQkKpGOrR+nfI5ToKPW92ts3byQkKJCdWzdbrZtw+TLPdut0r7qqRsRAxMCqTsRAZ8EcKWKg2ZRmTJY6vbEyszwkKJDObVowsE8Pdu3YpqynNU6eio9jxKAX6douiMHP9+Zg5H6trRQcDJd7zsGG8AiMRiPh27cyY/pUvp0zX6nbFLaW4JBObApby//atVfKd+3czsxvvuTa1UStlPmLiIGIgVWdiIHOgjlSxECzKZsxWdAbKzOfoJiamsKfv+9k6sRxtGzdVnecnDT2Q7o/3ZNWbYOJjopk4sejWfxbWLbtC/cXl5o5yMRgMNC0eQvOnj6llF1NTCDm6BGGvf4WR48cUv2Cr1u1grGTpt77jooYiBhY1YkY6CyYI0UMNJvSjMnGEbTGSnOdGwaDgfadHgf0x8lv58ynQ+euGI1GbiYlUaJkSduNCg6By80cAKSnp7NrxzZ8/fyVsi0bwmj5vzYULFSI5kGt2bpxPU89a3rBzPgp0+99J0UMRAys6kQMdBbMkSIGmk1pxtixr7TGyqzvNhg8/HXA9jj5T3IyvUM78+8///DW6I904wTHweXkICQoEIObGxV9KzFi1HtK+eb16xg6YiQA7Tp0ZMaXUxU5uF+IGGgjYqDdHcsPIgbZxYgY2AxGf6zMPK2QlppK5N4Ipk2eQGiPXtbtW1DA25uVG7ezdeN6fvz2K4JDHrcZL9x/XE4OtN44dvzYUU7GxfL28CGq8hMxx6hWI+Bedc2EzBiIGFjViRjoLJgjRQw0m9KMsfm7bya7tzN6eHrSoFFjkpNv25cQaN7qf0ybNN7ueOH+4ZLXHGRlU9gaBgx5lQ3hEcq/FwYNZXPY2nvbETsOaiIGtuNEDLLGiBioY0QM9ILtdAaF1NQUVv26lHoNGtqMG9D7GQ5FR5GWmsq+3X9S75FGOWxJuB+43MxBVtLS0ti3+0++mT1PVd419GleGfg8A4cNx8Pj3u2mnA0sIgbqYhEDdYyIgTpGxEAvOCdikHnNgXfBgtSuW4/hI9+1Gf/26I+ZNnkC58+epU79+rzxjvXrwAXHw6XkQGuazMPDg9mLf7UqL1ioEHOylGc3zZZbRAy0ETHQ7o7lBxGD7GJEDGwGZynSG+vsGQOzxgTUrsN3Py3Idj3BsZDTCg6NiIGIgXZ3LD+IGGQXI2KgF2zHLhJcFJEDh0XEQMRAuzuWH0QMsosRMdALtvGbIggiBw6NiIHNOBGDrDEiBuoYEQO9YHv2teDauMw1B1kf3OG46A0sIgbqYhEDdYyIgTpGxEAvOLtd5DxjpZCfuIQc2D6QOAYGgwHdA6mIgTpGxCBLjIiBOkbEQC/Yvn3t+OOlkP+4hByYDrxOgtX4IGKgLhYxUMeIGKhjRAz0gu3Z1+Ac46UITP7jEnIA+X8bYm4JCQq0fXQQMRAxsIoRMVDHiBjoBdu1rzP+d4qxUsh35IJEB8O+g749MSIG9seIGKhjRAy0GnEFMRCETEQOHAjbB+SsH0UMVP0RMdCty1mMiIFWIw+yGOjnEVwZkQOHw9ZB354YEQP7Y0QM1DEiBlqNPMhiYI8zCK6JyIFDIWKgLhYxUMeIGKhjRAz0gnMkBjZKBNdF5MAJEDHQziBioF+XsxgRA61GXEIM7NifgmsicuBo6B53RAxU/REx0K3LWYyIgVYjriUGgmCNyIEjIWIgYmAVI2KgjhEx0Av+b2IghiBoI3LgoIgYaGcQMdCvy1mMiIFWIyIGgmDCpeQgJCiQkKBAOrZ6lP49QomOilTVb9+8kZCgQHZu3awq//vQXwx9oS/dglsx7MV+xBz9+x71WMRA1R8RA926nMWIGGg14upiYLkZemNlZnlIUCCd27RgYJ8e7NqxTVkv4fJlnu3WSZX3/o2fQm5wKTkA09O/wnbuZsCQV5gxfaqqblPYWoJDOrEpbK2q/PPxY3hu4CCWhW3h8W6hfD5+TL71T/OQImIgYmCjLmcxIgZajYgYWHdJb6zcEB7BhvAIVm7aznMDXmbqxHEA7Nq5nZGvDuba1URVnns5fgp5h8vJAZieHd60eQvOnj6llF1NTCDm6BGGvf4WR48cUv2Cz1q0jGYtW+Hl5UX7Tp1JvHIlX/pl+6Cd+VHEwP4YEQN1jIiBViOuLgY2GtMcK811bhgMBtp3ehyAdatWMHbSVKu4ezV+CnmLy7xbwZL09HR27diGr5+/UrZlQxgt/9eGgoUK0TyoNVs3ruepZ/tYrXs4OopW7YLzsXf6A4OIQU5iRAzUMSIGWo24uhhkt6+1xsqs7zYYPPx1AMZPma6Zw5L8Hz+FvMLl5CAkKBCDmxsVfSsxYtR7Svnm9esYOmIkAO06dGTGl1Ot5OBmUhKrlv3CqA/H5lPvRAxU/REx0K3LWYyIgVYjIgbWXbJEb6zMfDFTWmoqkXsjmDZ5AqE9etlOxr0YP4W8xOXkQOuNY8ePHeVkXCxvDx+iKj8Rc4xqNQIAuHY1ke+/msaw10fiXbDgPelrJiIGOYkRMVDHiBhoNSJioF+XSXZvZ/Tw9KRBo8YkJ9+2GQf3d/wU/hsuJwdabApbw4Ahr9KjTz+lbPG8n9gctpZqNQLYt2c3i36ezehPPqV4iRL525kcDCwiBjo9EDHIiBEx0GpExEC/Liekpqaw6tel1GvQ0GbcPR0/hTzD5eUgLS2Nfbv/5JvZ81TlXUOf5pWBzzNw2HCmT57A5UsXebZbR6U+X955LmIgYmCjLmcxIgZajYgY6NfZS+Y1B94FC1K7bj2Gj3zXZvw9Gz+FPMWl5EDrF9LDw4PZi3+1Ki9YqBBzMsrn/fpbvvctKyIGOYkRMVDHiBhoNSJioF+XFb2Dtz0H9awx92P8FHKPS97K6JSIGIgY2BUjYqDViIiBfp05JntpEFwHkQMHQ2YMchIjYqCOETHQakTEQL/OHCNiIKhxqdMKjk7moGEwGO5zTwRBEARXxmB0AWV0loPta2+NUhfIjIHMGNgVIzMGWo3IjIF+nTlGXbdq+QrdWEfCBQ5b9x2XmDlwhl8kK4ERMRAxsCtGxECrERED/TpzzH/5+xVcBZeYOXAGnGV2QxCEBxs5JAjgIjMHzkDmH6TBYMiXe4BDggIxGo2SX/JL/nzOb0zel+f5Dd5N7kl+QchE7lYQBEEQBEGFyIEgCIIgCCpEDgRBEARBUCFyIAiCIAiCCpEDQRAEQRBUiBwIgiAIgqBC5EAQBEEQBBUiB4IgCIIgqBA5EARBEARBhciBIAiCIAgqRA4EQRAEQVAhciAIgiAIggqRA0EQBEEQVMhbGQVBcDoORu5nxS+LiD0ew9XEBDAYKFa8OAE1a/NMn+eoVafu/e6iIDg1IgeCIDgdP3w9jaA27Xjt7fcoWqwYADdvJrFl/Tomfvw+Py9ddZ97KAjOjciBIAhOx6n4eD7/picFCngrZUWLFqNz96eY9d3Xuc7/bLdOXLuaqFu/ITwi120IgiMj1xwIguB0FC9Rgk1ha0m+fRuj0YgxPZ2bSUlsWLOKYiVK5Dr/1z/OpXxFX2YtXMqG8Airf7klKjqG6vVClc/fzVxGsbJtaNKyHydiz+Q6P8CK37bhVbQZBu8mGLyb4FW0GStXb8+T3MKDj8iBIAhOx3tjJxC5N4KX+vagS7sgundoy6sv9efIob8Y9cGYXOf3KV2agUNe4fuvp+VBb615+/3pvPNmfwDC/4jih1nLOXF4JePHDGXY65NynX/Fb9vo++IHLJk3EWPyPozJ+1j88wT6vDBaBEGwCzmt4KRE7d/Hp2M+oKSPD0/27MWs777h1q2b1H+kEa+/8z4lfUrleZshQYF5Np1qmetUfByfTxjL6fh46tSvzxvvfIBP6dK5yh8dFcm0T8cze/GvnIg5yrRJEzgVH0f1gFqMGPU+lfz9c5W/0/+a8cKgoTzTqy8GN3Hse02tOnX5eOJn+dpGy9Ztadm6bb7kjjoYw4rFnwOwbcc+ej7dAZ+SxWgd1JjuPd7Mdf6e/d7ll/mf0r1rG6XsySfaAdCj7zuk3Nid6zaEBxuRAydl5jdf8sa7o0m6cYPPxo1h1EdjadayFXv//IOpE8cxfsr0XOUPCQq0WZ6X51ynThzHyPc+pJKfP/FxsUz99BMmTP0qVzm/+HQ8Lw4aCsCksR/xyhtvU6d+A6L272PS2A/5ZvbPucqfnp5OwUKFGPnKYPoOeImGjZvmKl9WnP1q/Jijf/P5+DEkXrlC6+DHGDj0VbwLFgTyVjKdlVu3kzEYDABs3hbBhDHDAHj4YS/KlC6Z6/ypqWkqMcjkySfakZqaluv8woOPfOVxUs6cPkm9RxrSOrg9Bby9ads+hAIFvGnRqjWHDkblOv+YSVPwr1KV/i8NYc22cGUwz6tzrpacjIulkn9lDG5u+FepypG//sp1zqTr1wlsEQTAjevXqVW3Hh4eHjzSqDHnzp7OdX6Azk88yYhR77F8yUKG9O/D4nk/EX1gPzeuX8t17h++nkZA7Tp8OfMnVm8NZ/WW3/l2znzqNniEiR+/nwe9z1+mT57AE0/1YOGqdQS1acvkTz7i8sUL97tbDkNgkzos/GU9UdExHIs5SWCTOgDsizxCwwYB97l3giAzB06Lf5Wq/L51Cx06d2XB8jVK+dG/D1OxUqVc52/WshWNmj7KkvlzeXVgfwYOfTXXObPy2biPadQ0kGoBAcq3qGNHDlO2fPlc527VLpiFP82iVdt2dH4ilLWrlhPyeFe2bd5A00eb5zp/Jr5+/nwy+QviY0+wdeN6Zn77FWdOnmTlptyd13X2q/FPn4znsce74OXlRaOmj1I9oBbffPEZg4e/kau8meR3//M7//TPR9Kj7zskJFznh29G4+lpGop79nuX5Yvz5nSJwbtJnuQRXBORAyfljXdGM/mTj+jQuasyXQum6fRRH47Nkza8vLzo9+JLtO/4ON9Nm5InOTP5eekqDkbuI3JvBJcvXVLKPx8/hpGjP851/qEjRrL45zlMGvsRF8+fIy0tjWUL59G0eUtGjMr7b96Vq1ZjwJBX8ixf5tX47UMep4C3NxiN3Lp1i22b1ufZ1fhvDR/CJ5OnUrGSXx70WI2vnz+Re/fQrGUrAAoXKcLLr7zGJ6NH5Un+/O5/fudvUK8Gxw4utyqPPZw3z2cwJu/LkzyC6yKnFZwU/ypV+XbOfKvyWQuXUqVa9Txtq1z5CoydPFX5tpSWlvtzlmXKlaND5668Nfpj5i0zD4izFi2jekDNXOf38vLiuYGDmDl/Cau3hhO2czcLVqxlxNvv8dDDD+c6v61vjnmxf5z9avxX3xzFzK/V172UKOlDr+deoHSZsrnOn9/9z+/8ciuj4OjIzMEDxImYY2wOW8vuP8L5aYn1txLJ7zz5nf1q/Fp16zFr0TKr8iaPNmfer7/lSRv52f/8zq93K+P+A38z7PVJbPgtd6eOLG9lDO1m2oblq7bS54XRLJgzTvNiRUGwROTAybl2NZGtG9ezcd0aTsbF8uLgYXwzK3dX4kv++58/fPtWpn46jg6dulC6bFmWLpzPP/8kU7tuPV4d+Q7lyleQ/E6cX25lFBwdOa3gpOzYsokP3nqdl/s9y6n4eIa8ZhpQevZ9noKFCkl+J88/e8Y3jHj7PerUb8D3X03jzfc+YMlv63mkcSBfT5ks+Z08f9ZbGVu1bAjIrYyC4yAzB07KhI/ep12Hjsz9ZaXqgkTJ/2Dkv3jhPC1atYaMA8gjjZvi4eFBaI+eLJ43R/I7ef7MWxmbNKottzIKDonIgZPy7sfj2BS2lud7dKfl/9rQrkNHyf8A5b979y4enp7KZw8P05+qp6cXt2/dkvxOnl9uZRQcHZEDJ6VN+w60ad+Bq4kJbNkQxtdTTQPKLwvm0TX0KdPtb5LfafMLDzY+JYvl662MZ0+so0L53D2CXHBtRA6cnBIlfXimdz+e6d2P48eOsilsDcNe7Mfsxb9KfifPb/kIa73HWUt+58zfrtNgHm1alzeG9+WR+jXyNPe9yC88+IgcPEBUD6hJ9YCaeXKfveS/v/nz+90Dkv/+5j8a9Stbt+/l82nzuHHjFkMHPUPHx5orFyk6en7hwUfuVnBSovbvY/DzvekW3IphL/bjyF/RSl3m+VHJ/2Dmzwsk//3NbzAYCG4byPzZnzB/ziecPHWeFwaNYdZPq7hzJ8Xh8wsPPiIHTsoXn46jT/8B/LJ2I92feZYvJo2T/JJf8jtJfkuKFinEkJeeZtZ3HxL+ZxTNWvd3qvzCg4nIgZNy6eIFWrUN5uGHCxAc0omzp/PmTYOSX/JL/vzPb8npMxf58JMZdHv6dVoHNWLPzrlOlV94MJFrDpwUo9GoLLu5uZGeni75Jb/kd5L8aWl3WRP2Oz/OWYnBYOC1Yb0Y+8Fgp8kvPPiIHDgxWa+gtvycFxdUSX7JL/nzJ39AgycJbhPI5xNHUDPAP1e57kd+4cFH5MBJcfartSW/5Hfl/Ht2zsWnZDGnzS88+Mg1B4IgCPeY/D5wixgIucVgtDy5Jtx38vM+ZKPRKPklv+SX/Lr5BSETkQNBEARBEFTIaQVBEARBEFSIHAiCIAiCoELkQBAEQRAEFSIHgiAIgiCoEDkQBEEQBEGFyIEgCIIgCCpEDgRBEARBUCFyIAiCIAiCCpEDQRAEQRBUiBwIgiAIgqBC5EAQBEEQBBUiB4IgCIIgqBA5EARBEARBhciBIAiCIAgqRA4EQRAEQVAhciAIgiAIggqRA0EQBEEQVIgcCIIgCIKgQuRAEARBEAQVIgeCIAiCIKgQORAEQRAEQYXIgSAIgiAIKv4PbfYoK3+jhygAAAAASUVORK5CYII=;" vertex="1" parent="1">
          <mxGeometry x="-450" y="130" width="159" height="155.02" as="geometry" />
        </mxCell>
        <mxCell id="e8maupZcCNSMWvDVQ-z9-20" value="D140&lt;br&gt;IOLINK&lt;br&gt;L6326A" style="rounded=0;whiteSpace=wrap;html=1;" vertex="1" parent="1">
          <mxGeometry x="-280" y="330" width="110" height="65" as="geometry" />
        </mxCell>
        <mxCell id="e8maupZcCNSMWvDVQ-z9-21" style="edgeStyle=orthogonalEdgeStyle;rounded=0;orthogonalLoop=1;jettySize=auto;html=1;exitX=1;exitY=0.5;exitDx=0;exitDy=0;endArrow=none;endFill=0;" edge="1" parent="1">
          <mxGeometry relative="1" as="geometry">
            <mxPoint x="20" y="362.58000000000004" as="targetPoint" />
            <mxPoint x="-169.99999999999977" y="362.08000000000004" as="sourcePoint" />
            <Array as="points">
              <mxPoint x="-75" y="362.58000000000004" />
              <mxPoint x="20" y="362.58000000000004" />
            </Array>
          </mxGeometry>
        </mxCell>
        <mxCell id="e8maupZcCNSMWvDVQ-z9-23" value="IOL_EN_DO" style="edgeLabel;html=1;align=center;verticalAlign=middle;resizable=0;points=[];" vertex="1" connectable="0" parent="e8maupZcCNSMWvDVQ-z9-21">
          <mxGeometry x="-0.1322" y="-1" relative="1" as="geometry">
            <mxPoint as="offset" />
          </mxGeometry>
        </mxCell>
        <mxCell id="e8maupZcCNSMWvDVQ-z9-24" value="P23" style="edgeLabel;html=1;align=center;verticalAlign=middle;resizable=0;points=[];" vertex="1" connectable="0" parent="e8maupZcCNSMWvDVQ-z9-21">
          <mxGeometry x="0.5755" y="-1" relative="1" as="geometry">
            <mxPoint as="offset" />
          </mxGeometry>
        </mxCell>
        <mxCell id="e8maupZcCNSMWvDVQ-z9-27" style="edgeStyle=orthogonalEdgeStyle;rounded=0;orthogonalLoop=1;jettySize=auto;html=1;exitX=1;exitY=0.5;exitDx=0;exitDy=0;endArrow=none;endFill=0;" edge="1" parent="1">
          <mxGeometry relative="1" as="geometry">
            <mxPoint x="10" y="230" as="targetPoint" />
            <mxPoint x="-180" y="230" as="sourcePoint" />
          </mxGeometry>
        </mxCell>
        <mxCell id="e8maupZcCNSMWvDVQ-z9-28" value="NRST" style="edgeLabel;html=1;align=center;verticalAlign=middle;resizable=0;points=[];" vertex="1" connectable="0" parent="e8maupZcCNSMWvDVQ-z9-27">
          <mxGeometry x="-0.2545" y="-1" relative="1" as="geometry">
            <mxPoint as="offset" />
          </mxGeometry>
        </mxCell>
        <mxCell id="e8maupZcCNSMWvDVQ-z9-29" value="P20" style="edgeLabel;html=1;align=center;verticalAlign=middle;resizable=0;points=[];" vertex="1" connectable="0" parent="e8maupZcCNSMWvDVQ-z9-27">
          <mxGeometry x="0.3088" y="-1" relative="1" as="geometry">
            <mxPoint x="26" as="offset" />
          </mxGeometry>
        </mxCell>
        <mxCell id="e8maupZcCNSMWvDVQ-z9-32" value="" style="rounded=0;whiteSpace=wrap;html=1;" vertex="1" parent="1">
          <mxGeometry x="-332" y="520" width="315" height="300" as="geometry" />
        </mxCell>
        <mxCell id="e8maupZcCNSMWvDVQ-z9-33" value="ASI DE_MODUL" style="text;html=1;align=center;verticalAlign=middle;resizable=0;points=[];autosize=1;strokeColor=none;fillColor=none;" vertex="1" parent="1">
          <mxGeometry x="-312" y="540" width="110" height="30" as="geometry" />
        </mxCell>
        <mxCell id="e8maupZcCNSMWvDVQ-z9-35" style="edgeStyle=orthogonalEdgeStyle;rounded=0;orthogonalLoop=1;jettySize=auto;html=1;exitX=1;exitY=0.5;exitDx=0;exitDy=0;endArrow=none;endFill=0;" edge="1" parent="1">
          <mxGeometry relative="1" as="geometry">
            <mxPoint x="20.000000000000227" y="470.50000000000006" as="targetPoint" />
            <mxPoint x="-169.99999999999977" y="470.00000000000017" as="sourcePoint" />
            <Array as="points">
              <mxPoint x="-75" y="470.50000000000006" />
              <mxPoint x="20" y="470.50000000000006" />
            </Array>
          </mxGeometry>
        </mxCell>
        <mxCell id="e8maupZcCNSMWvDVQ-z9-36" value="P24V_SENSE" style="edgeLabel;html=1;align=center;verticalAlign=middle;resizable=0;points=[];" vertex="1" connectable="0" parent="e8maupZcCNSMWvDVQ-z9-35">
          <mxGeometry x="-0.1322" y="-1" relative="1" as="geometry">
            <mxPoint as="offset" />
          </mxGeometry>
        </mxCell>
        <mxCell id="e8maupZcCNSMWvDVQ-z9-37" value="P23" style="edgeLabel;html=1;align=center;verticalAlign=middle;resizable=0;points=[];" vertex="1" connectable="0" parent="e8maupZcCNSMWvDVQ-z9-35">
          <mxGeometry x="0.5755" y="-1" relative="1" as="geometry">
            <mxPoint as="offset" />
          </mxGeometry>
        </mxCell>
        <mxCell id="e8maupZcCNSMWvDVQ-z9-38" style="edgeStyle=orthogonalEdgeStyle;rounded=0;orthogonalLoop=1;jettySize=auto;html=1;exitX=1;exitY=0.5;exitDx=0;exitDy=0;endArrow=none;endFill=0;" edge="1" parent="1">
          <mxGeometry relative="1" as="geometry">
            <mxPoint x="20.000000000000227" y="490.5" as="targetPoint" />
            <mxPoint x="-169.9999999999999" y="490.0000000000002" as="sourcePoint" />
            <Array as="points">
              <mxPoint x="-75" y="490.50000000000006" />
              <mxPoint x="20" y="490.50000000000006" />
            </Array>
          </mxGeometry>
        </mxCell>
        <mxCell id="e8maupZcCNSMWvDVQ-z9-39" value="L+" style="edgeLabel;html=1;align=center;verticalAlign=middle;resizable=0;points=[];" vertex="1" connectable="0" parent="e8maupZcCNSMWvDVQ-z9-38">
          <mxGeometry x="-0.1322" y="-1" relative="1" as="geometry">
            <mxPoint as="offset" />
          </mxGeometry>
        </mxCell>
        <mxCell id="e8maupZcCNSMWvDVQ-z9-40" value="P23" style="edgeLabel;html=1;align=center;verticalAlign=middle;resizable=0;points=[];" vertex="1" connectable="0" parent="e8maupZcCNSMWvDVQ-z9-38">
          <mxGeometry x="0.5755" y="-1" relative="1" as="geometry">
            <mxPoint as="offset" />
          </mxGeometry>
        </mxCell>
        <mxCell id="e8maupZcCNSMWvDVQ-z9-41" value="D301&lt;br&gt;ATMEGA168&lt;br&gt;ISP" style="rounded=0;whiteSpace=wrap;html=1;" vertex="1" parent="1">
          <mxGeometry x="-290" y="580" width="120" height="130" as="geometry" />
        </mxCell>
        <mxCell id="e8maupZcCNSMWvDVQ-z9-43" style="edgeStyle=orthogonalEdgeStyle;rounded=0;orthogonalLoop=1;jettySize=auto;html=1;exitX=1;exitY=0.5;exitDx=0;exitDy=0;endArrow=none;endFill=0;" edge="1" parent="1">
          <mxGeometry relative="1" as="geometry">
            <mxPoint y="604.91" as="targetPoint" />
            <mxPoint x="-190" y="604.41" as="sourcePoint" />
            <Array as="points">
              <mxPoint x="-95" y="604.9100000000001" />
              <mxPoint y="604.9100000000001" />
            </Array>
          </mxGeometry>
        </mxCell>
        <mxCell id="e8maupZcCNSMWvDVQ-z9-44" value="MISO" style="edgeLabel;html=1;align=center;verticalAlign=middle;resizable=0;points=[];" vertex="1" connectable="0" parent="e8maupZcCNSMWvDVQ-z9-43">
          <mxGeometry x="-0.1322" y="-1" relative="1" as="geometry">
            <mxPoint as="offset" />
          </mxGeometry>
        </mxCell>
        <mxCell id="e8maupZcCNSMWvDVQ-z9-49" value="x301" style="edgeLabel;html=1;align=center;verticalAlign=middle;resizable=0;points=[];" vertex="1" connectable="0" parent="e8maupZcCNSMWvDVQ-z9-43">
          <mxGeometry x="0.577" y="-1" relative="1" as="geometry">
            <mxPoint as="offset" />
          </mxGeometry>
        </mxCell>
        <mxCell id="e8maupZcCNSMWvDVQ-z9-46" style="edgeStyle=orthogonalEdgeStyle;rounded=0;orthogonalLoop=1;jettySize=auto;html=1;exitX=1;exitY=0.5;exitDx=0;exitDy=0;endArrow=none;endFill=0;" edge="1" parent="1">
          <mxGeometry relative="1" as="geometry">
            <mxPoint y="620.4999999999999" as="targetPoint" />
            <mxPoint x="-190" y="619.9999999999999" as="sourcePoint" />
            <Array as="points">
              <mxPoint x="-95" y="620.5" />
              <mxPoint y="620.5" />
            </Array>
          </mxGeometry>
        </mxCell>
        <mxCell id="e8maupZcCNSMWvDVQ-z9-47" value="P5V" style="edgeLabel;html=1;align=center;verticalAlign=middle;resizable=0;points=[];" vertex="1" connectable="0" parent="e8maupZcCNSMWvDVQ-z9-46">
          <mxGeometry x="-0.1322" y="-1" relative="1" as="geometry">
            <mxPoint as="offset" />
          </mxGeometry>
        </mxCell>
        <mxCell id="e8maupZcCNSMWvDVQ-z9-48" value="x302" style="edgeLabel;html=1;align=center;verticalAlign=middle;resizable=0;points=[];" vertex="1" connectable="0" parent="e8maupZcCNSMWvDVQ-z9-46">
          <mxGeometry x="0.5755" y="-1" relative="1" as="geometry">
            <mxPoint as="offset" />
          </mxGeometry>
        </mxCell>
        <mxCell id="e8maupZcCNSMWvDVQ-z9-50" value="" style="edgeStyle=orthogonalEdgeStyle;rounded=0;orthogonalLoop=1;jettySize=auto;html=1;exitX=1;exitY=0.5;exitDx=0;exitDy=0;endArrow=none;endFill=0;" edge="1" parent="1">
          <mxGeometry x="0.1584" y="-10" relative="1" as="geometry">
            <mxPoint y="640.4999999999999" as="targetPoint" />
            <mxPoint x="-190" y="639.9999999999999" as="sourcePoint" />
            <Array as="points">
              <mxPoint x="-95" y="640.5" />
              <mxPoint y="640.5" />
            </Array>
            <mxPoint as="offset" />
          </mxGeometry>
        </mxCell>
        <mxCell id="e8maupZcCNSMWvDVQ-z9-51" value="SCK" style="edgeLabel;html=1;align=center;verticalAlign=middle;resizable=0;points=[];" vertex="1" connectable="0" parent="e8maupZcCNSMWvDVQ-z9-50">
          <mxGeometry x="-0.1322" y="-1" relative="1" as="geometry">
            <mxPoint as="offset" />
          </mxGeometry>
        </mxCell>
        <mxCell id="e8maupZcCNSMWvDVQ-z9-52" value="x303" style="edgeLabel;html=1;align=center;verticalAlign=middle;resizable=0;points=[];" vertex="1" connectable="0" parent="e8maupZcCNSMWvDVQ-z9-50">
          <mxGeometry x="0.5755" y="-1" relative="1" as="geometry">
            <mxPoint as="offset" />
          </mxGeometry>
        </mxCell>
        <mxCell id="e8maupZcCNSMWvDVQ-z9-53" style="edgeStyle=orthogonalEdgeStyle;rounded=0;orthogonalLoop=1;jettySize=auto;html=1;exitX=1;exitY=0.5;exitDx=0;exitDy=0;endArrow=none;endFill=0;" edge="1" parent="1">
          <mxGeometry relative="1" as="geometry">
            <mxPoint y="660.4999999999999" as="targetPoint" />
            <mxPoint x="-190" y="659.9999999999999" as="sourcePoint" />
            <Array as="points">
              <mxPoint x="-95" y="660.5" />
              <mxPoint y="660.5" />
            </Array>
          </mxGeometry>
        </mxCell>
        <mxCell id="e8maupZcCNSMWvDVQ-z9-54" value="MOSI" style="edgeLabel;html=1;align=center;verticalAlign=middle;resizable=0;points=[];" vertex="1" connectable="0" parent="e8maupZcCNSMWvDVQ-z9-53">
          <mxGeometry x="-0.1322" y="-1" relative="1" as="geometry">
            <mxPoint as="offset" />
          </mxGeometry>
        </mxCell>
        <mxCell id="e8maupZcCNSMWvDVQ-z9-55" value="x304" style="edgeLabel;html=1;align=center;verticalAlign=middle;resizable=0;points=[];" vertex="1" connectable="0" parent="e8maupZcCNSMWvDVQ-z9-53">
          <mxGeometry x="0.5755" y="-1" relative="1" as="geometry">
            <mxPoint as="offset" />
          </mxGeometry>
        </mxCell>
        <mxCell id="e8maupZcCNSMWvDVQ-z9-56" style="edgeStyle=orthogonalEdgeStyle;rounded=0;orthogonalLoop=1;jettySize=auto;html=1;exitX=1;exitY=0.5;exitDx=0;exitDy=0;endArrow=none;endFill=0;" edge="1" parent="1">
          <mxGeometry relative="1" as="geometry">
            <mxPoint y="680.4999999999999" as="targetPoint" />
            <mxPoint x="-190" y="679.9999999999999" as="sourcePoint" />
            <Array as="points">
              <mxPoint x="-95" y="680.5" />
              <mxPoint y="680.5" />
            </Array>
          </mxGeometry>
        </mxCell>
        <mxCell id="e8maupZcCNSMWvDVQ-z9-57" value="RESET" style="edgeLabel;html=1;align=center;verticalAlign=middle;resizable=0;points=[];" vertex="1" connectable="0" parent="e8maupZcCNSMWvDVQ-z9-56">
          <mxGeometry x="-0.1322" y="-1" relative="1" as="geometry">
            <mxPoint as="offset" />
          </mxGeometry>
        </mxCell>
        <mxCell id="e8maupZcCNSMWvDVQ-z9-58" value="x305" style="edgeLabel;html=1;align=center;verticalAlign=middle;resizable=0;points=[];" vertex="1" connectable="0" parent="e8maupZcCNSMWvDVQ-z9-56">
          <mxGeometry x="0.5755" y="-1" relative="1" as="geometry">
            <mxPoint as="offset" />
          </mxGeometry>
        </mxCell>
        <mxCell id="e8maupZcCNSMWvDVQ-z9-59" style="edgeStyle=orthogonalEdgeStyle;rounded=0;orthogonalLoop=1;jettySize=auto;html=1;exitX=1;exitY=0.5;exitDx=0;exitDy=0;endArrow=none;endFill=0;" edge="1" parent="1">
          <mxGeometry relative="1" as="geometry">
            <mxPoint y="700.4999999999999" as="targetPoint" />
            <mxPoint x="-190" y="699.9999999999998" as="sourcePoint" />
            <Array as="points">
              <mxPoint x="-95" y="700.5" />
              <mxPoint y="700.5" />
            </Array>
          </mxGeometry>
        </mxCell>
        <mxCell id="e8maupZcCNSMWvDVQ-z9-60" value="GND" style="edgeLabel;html=1;align=center;verticalAlign=middle;resizable=0;points=[];" vertex="1" connectable="0" parent="e8maupZcCNSMWvDVQ-z9-59">
          <mxGeometry x="-0.1322" y="-1" relative="1" as="geometry">
            <mxPoint as="offset" />
          </mxGeometry>
        </mxCell>
        <mxCell id="e8maupZcCNSMWvDVQ-z9-61" value="x306" style="edgeLabel;html=1;align=center;verticalAlign=middle;resizable=0;points=[];" vertex="1" connectable="0" parent="e8maupZcCNSMWvDVQ-z9-59">
          <mxGeometry x="0.5755" y="-1" relative="1" as="geometry">
            <mxPoint as="offset" />
          </mxGeometry>
        </mxCell>
        <mxCell id="e8maupZcCNSMWvDVQ-z9-62" style="edgeStyle=orthogonalEdgeStyle;rounded=0;orthogonalLoop=1;jettySize=auto;html=1;exitX=1;exitY=0.5;exitDx=0;exitDy=0;endArrow=none;endFill=0;" edge="1" parent="1">
          <mxGeometry relative="1" as="geometry">
            <mxPoint y="745.2499999999999" as="targetPoint" />
            <mxPoint x="-190" y="744.7499999999998" as="sourcePoint" />
            <Array as="points">
              <mxPoint x="-95" y="745.25" />
              <mxPoint y="745.25" />
            </Array>
          </mxGeometry>
        </mxCell>
        <mxCell id="e8maupZcCNSMWvDVQ-z9-63" value="L+" style="edgeLabel;html=1;align=center;verticalAlign=middle;resizable=0;points=[];" vertex="1" connectable="0" parent="e8maupZcCNSMWvDVQ-z9-62">
          <mxGeometry x="-0.1322" y="-1" relative="1" as="geometry">
            <mxPoint as="offset" />
          </mxGeometry>
        </mxCell>
        <mxCell id="e8maupZcCNSMWvDVQ-z9-64" value="x2-3" style="edgeLabel;html=1;align=center;verticalAlign=middle;resizable=0;points=[];" vertex="1" connectable="0" parent="e8maupZcCNSMWvDVQ-z9-62">
          <mxGeometry x="0.5755" y="-1" relative="1" as="geometry">
            <mxPoint as="offset" />
          </mxGeometry>
        </mxCell>
        <mxCell id="e8maupZcCNSMWvDVQ-z9-67" style="edgeStyle=orthogonalEdgeStyle;rounded=0;orthogonalLoop=1;jettySize=auto;html=1;exitX=1;exitY=0.5;exitDx=0;exitDy=0;endArrow=none;endFill=0;" edge="1" parent="1">
          <mxGeometry relative="1" as="geometry">
            <mxPoint x="1.1368683772161603e-13" y="770.5599999999997" as="targetPoint" />
            <mxPoint x="-190" y="770.0599999999997" as="sourcePoint" />
            <Array as="points">
              <mxPoint x="-95" y="770.56" />
              <mxPoint y="770.56" />
            </Array>
          </mxGeometry>
        </mxCell>
        <mxCell id="e8maupZcCNSMWvDVQ-z9-68" value="M" style="edgeLabel;html=1;align=center;verticalAlign=middle;resizable=0;points=[];" vertex="1" connectable="0" parent="e8maupZcCNSMWvDVQ-z9-67">
          <mxGeometry x="-0.1322" y="-1" relative="1" as="geometry">
            <mxPoint as="offset" />
          </mxGeometry>
        </mxCell>
        <mxCell id="e8maupZcCNSMWvDVQ-z9-69" value="X2-2" style="edgeLabel;html=1;align=center;verticalAlign=middle;resizable=0;points=[];" vertex="1" connectable="0" parent="e8maupZcCNSMWvDVQ-z9-67">
          <mxGeometry x="0.5755" y="-1" relative="1" as="geometry">
            <mxPoint as="offset" />
          </mxGeometry>
        </mxCell>
      </root>
    </mxGraphModel>
  </diagram>
</mxfile>
